<svg width="1367" height="250" viewBox="0 0 1367 250" fill="none" xmlns="http://www.w3.org/2000/svg">
<mask id="mask0_16_219" style="mask-type:alpha" maskUnits="userSpaceOnUse" x="0" y="0" width="1367" height="250">
<rect width="1367" height="250" fill="#D9D9D9"/>
</mask>
<g mask="url(#mask0_16_219)">
<path d="M1.319 174.909C1.319 174.909 137.919 12.0943 286.938 0.701341C435.957 -10.6917 454.868 120.364 597.38 129.336C739.892 138.308 705.671 33.7133 856.989 36.5903C1008.31 39.4673 1075.07 119.464 1202.65 140.845C1330.23 162.226 1367.32 122.116 1367.32 122.116V2917.8C1367.32 2917.8 1295.83 2766.69 1122.87 2777.3C949.901 2787.9 957.167 2850.41 760.53 2861.48C563.893 2872.55 503.281 2724.18 313.478 2738.26C123.675 2752.34 0 2840.4 0 2840.4L1.319 174.909Z" fill="white"/>
</g>
</svg>
