<svg width="1367" height="250" viewBox="0 0 1367 250" fill="none" xmlns="http://www.w3.org/2000/svg">
<mask id="mask0_16_220" style="mask-type:alpha" maskUnits="userSpaceOnUse" x="0" y="0" width="1367" height="250">
<rect width="1367" height="250" fill="#D9D9D9"/>
</mask>
<g mask="url(#mask0_16_220)">
<path d="M1.319 -2493.09C1.319 -2493.09 137.919 -2655.91 286.938 -2667.3C435.957 -2678.69 454.868 -2547.64 597.38 -2538.66C739.892 -2529.69 705.671 -2634.29 856.989 -2631.41C1008.31 -2628.53 1075.07 -2548.54 1202.65 -2527.15C1330.23 -2505.77 1367.32 -2545.88 1367.32 -2545.88V249.796C1367.32 249.796 1295.83 98.6894 1122.87 109.296C949.901 119.903 957.167 182.405 760.53 193.475C563.893 204.545 503.281 56.1825 313.478 70.2625C123.675 84.3425 0 172.399 0 172.399L1.319 -2493.09Z" fill="white"/>
</g>
</svg>
