<svg xmlns="http://www.w3.org/2000/svg" width="27.217" height="48.65" viewBox="0 0 27.217 48.65">
  <g id="レイヤー_1" data-name="レイヤー 1" transform="translate(0.01 0.006)">
    <path id="パス_141" data-name="パス 141" d="M10.011,39.677,6.7,46.465A2.465,2.465,0,0,1,3.489,47.8a2.426,2.426,0,0,1-1.35-3.251c.79-1.929,2.214-3.757,2.682-5.832V31.356l-.413-.009L4.362,32.67A2.216,2.216,0,0,1,2.24,34.883,2.208,2.208,0,0,1,0,32.67l.753-7.541a2.724,2.724,0,0,1,.974-1.681l4.932-3.279c.836-.551,2.067-.294,2.976-.5l5.309-1.157,3.646-5.281.827-.634V.716c0-.4.606-.863.955-.68l6.236,3.325a1.754,1.754,0,0,1,.579.551c.11.211-.23.753-.45.863l-5.9,3.141.018,4.813a2.178,2.178,0,0,1,1.056,3.306l-4.207,6.2-4.445,1.111v8.808L16.2,38.933l.276,6.962a2.507,2.507,0,0,1-2.094,2.719A2.353,2.353,0,0,1,11.6,46.557l-.4-6.622a9.878,9.878,0,0,0-1.24-2.893l.073,2.636ZM24.963,4.1,20.858,1.855V6.337ZM9.009,22.906l7.8-1.837,3.913-5.777c.156-.23.248-1.038-.028-1.056l-1.084-.064-3.747,5.557L8.89,21.354a1.02,1.02,0,0,0-.707.808c0,.276.5.836.836.753Zm3.674,16.771.294,6.9c.018.349.845.744,1.176.68s.928-.606.918-.974l-.3-7.182L11.847,32.44l.018-8.735L9.4,24.238a2.256,2.256,0,0,1-2.682-2.177,2.529,2.529,0,0,0-.6,1.13c-.092,5.309-.009,10.351.349,15.669l-3.1,6.475c-.2.432.367,1.176.762,1.24a1.39,1.39,0,0,0,1.323-.67l3.114-6.429-.147-5.226c.092-.5,1.644-.533,1.864-.037l2.406,5.465ZM2.938,32.826,3.682,25.7l1.047-.753-.018-1.819L2.259,24.716,1.4,32.706c-.037.358.524.845.808.8.239-.046.707-.422.735-.67Z" transform="translate(0 0)" fill="#f7f8f8"/>
    <path id="パス_142" data-name="パス 142" d="M8.306,11.677a4.318,4.318,0,0,1,5.244,3.132,4.283,4.283,0,1,1-5.244-3.132Zm.524,1.313A2.842,2.842,0,0,0,6.6,16.481a2.873,2.873,0,1,0,2.232-3.5Z" transform="translate(-0.417 -0.941)" fill="#f7f8f8"/>
  </g>
</svg>
