<svg xmlns="http://www.w3.org/2000/svg" width="868.214" height="57.654" viewBox="0 0 868.214 57.654">
  <g id="_555-1" data-name="555-1" transform="translate(0.021 0.005)">
    <path id="パス_135" data-name="パス 135" d="M1.372,54.228,19.92,51.246Q73.008,43.38,126.629,39.993c21.8-1.339,43.546-2.071,65.319-1.913l27.736.731,38.883,1.868,61.77,3.455,61.538,2.757c18.3.821,36.551.934,54.891.518l71.085-1.62,74.9-2.352,62.941-1.35,22.005.439,36.505,2.8,41.98,4.164,36.725,3.432,19.442,1.125c.267.011.858.1.963-.079l.441-.833,9.141-19.692L851.777.417a2.769,2.769,0,0,1,2.993.034l12.5,13.683a3.1,3.1,0,0,1,.916,2.1,2.98,2.98,0,0,1-1.253,2.093l-38.3,32.543L806,57.435l-15.242-.54-30.067-2.566-48.407-4.839-38.86-3.241-28.211-.765L579.4,46.925l-73.463,2.307L436.753,50.8c-19.047.428-37.99.056-57.025-.585L318.19,47.42l-57.721-3.23-42.7-2.048-25.276-.653c-54.357-.439-113.9,4.7-167.759,12.479L1.418,57.649A1.917,1.917,0,0,1-.02,55.938a1.674,1.674,0,0,1,1.369-1.7ZM816.3,49.119l6.264-1.845-6.821-7.517-2.691,5.84,3.248,3.511Z" transform="translate(0 0)" fill="#449d39"/>
    <path id="パス_136" data-name="パス 136" d="M704.061,44.692,700.91,41.17l2.611-5.84,6.617,7.506Z" transform="translate(113.796 4.427)" fill="#fff"/>
  </g>
</svg>
