<svg xmlns="http://www.w3.org/2000/svg" width="181.362" height="154.879" viewBox="0 0 181.362 154.879">
  <g id="グループ_678" data-name="グループ 678" transform="translate(-859.319 -5295.798)">
    <g id="e1477_1" transform="translate(836.982 5303.451) rotate(-8)">
      <path id="パス_134" data-name="パス 134" d="M47.485,33.94C10.14,58.658-.657,154.552,90.171,133.036A64.79,64.79,0,0,1,99,131.356c.876,2.43,1.721,4.31,1.721,4.31,3.629,10.3,3.77,15.818,3.77,15.818s7.945-5.279,11.725-20.009c1.919.264,3.543.579,4.8.878,58.25,16.4,77.516-58.337,52.995-89.942C153.652,16.179,86.434,8.162,47.485,33.94Z" transform="translate(0 0)" fill="#efde5d"/>
    </g>
    <text id="中央区南16条_エリア" data-name="中央区南16条
エリア" transform="translate(955.399 5368)" fill="#fff" font-size="22" font-family="YuGothicUI-Bold, Yu Gothic UI" font-weight="700" letter-spacing="0.075em"><tspan x="-72.534" y="0">中央区南</tspan><tspan y="0" font-family="NotoSans-Bold, Noto Sans">16</tspan><tspan y="0">条</tspan><tspan y="0" font-family="NotoSans-Bold, Noto Sans"></tspan><tspan font-size="15"><tspan x="-18.238" y="23">エリア</tspan></tspan></text>
  </g>
</svg>
