<svg xmlns="http://www.w3.org/2000/svg" width="154.149" height="143.512" viewBox="0 0 154.149 143.512">
  <g id="グループ_681" data-name="グループ 681" transform="translate(-93.8 -4897.664)">
    <g id="e1477_1" transform="translate(71.463 4901.644) rotate(-8)">
      <path id="パス_134" data-name="パス 134" d="M43.074,33.022C11.722,56.3,2.659,146.6,78.908,126.342a49.158,49.158,0,0,1,7.411-1.582c.736,2.288,1.445,4.059,1.445,4.059,3.046,9.7,3.165,14.9,3.165,14.9s6.669-4.971,9.843-18.842a38.565,38.565,0,0,1,4.026.826c48.9,15.442,65.074-54.937,44.489-84.7C132.2,16.3,75.771,8.747,43.074,33.022Z" transform="translate(0)" fill="#449d39"/>
    </g>
    <text id="南区川沿_エリア" data-name="南区川沿
エリア" transform="translate(171 4961)" fill="#fff" font-size="22" font-family="YuGothicUI-Bold, Yu Gothic UI" font-weight="700" letter-spacing="0.075em"><tspan x="-46.475" y="0">南区川沿</tspan><tspan y="0" font-family="NotoSans-Bold, Noto Sans"></tspan><tspan font-size="15"><tspan x="-18.238" y="23">エリア</tspan></tspan></text>
  </g>
</svg>
