<svg xmlns="http://www.w3.org/2000/svg" width="84" height="108" viewBox="0 0 84 108">
  <g id="グループ_697" data-name="グループ 697" transform="translate(-113 -6717)">
    <g id="グループ_696" data-name="グループ 696">
      <ellipse id="楕円形_584" data-name="楕円形 584" cx="42" cy="41.5" rx="42" ry="41.5" transform="translate(113 6717)" fill="#449d39"/>
      <text id="STEP02" transform="translate(128 6821)" fill="#449d39" font-size="14" font-family="NotoSans-Regular, Noto Sans" letter-spacing="0.1em"><tspan x="0" y="0">STEP02</tspan></text>
    </g>
    <g id="レイヤー_1" data-name="レイヤー 1" transform="translate(133.66 6730.142)">
      <g id="グループ_321" data-name="グループ 321" transform="translate(0)">
        <path id="パス_143" data-name="パス 143" d="M52.36,20.343A10.172,10.172,0,1,0,42.19,10.17,10.182,10.182,0,0,0,52.36,20.343Zm0-18.71a8.537,8.537,0,1,1-8.537,8.537A8.547,8.547,0,0,1,52.36,1.633Z" transform="translate(-31.587)" fill="#fff"/>
        <path id="パス_144" data-name="パス 144" d="M40.07,99.423l-.98-.289,3.443-10.319a.818.818,0,0,0-.777-1.076H22.944a.82.82,0,0,0-.782.578l-.176.575H12.62A12.64,12.64,0,0,0,0,101.519v8.26a8.843,8.843,0,0,0,8.182,8.808v3.207H9.816v-3.179h12.52a5.182,5.182,0,1,0,0-10.364H17.8L23.55,89.374H40.623L37.5,98.725a2.881,2.881,0,0,0-3.016,2.056l-1.2,4.076a2.88,2.88,0,0,0,1.111,3.166l-.95,2.847H29.239V112.5h1.829v9.288H32.7V112.5h1.339a.813.813,0,0,0,.774-.558l1.106-3.317,1.324.39a3.48,3.48,0,0,0,4.317-2.355l.859-2.925a3.479,3.479,0,0,0-2.355-4.315Zm-28.181,8.831v-7.692H10.256v9.326H22.338a3.548,3.548,0,1,1,0,7.1H8.836a7.212,7.212,0,0,1-7.2-7.2v-8.26a11,11,0,0,1,10.99-10.99h8.869l-5.4,17.724H11.889Zm28.968-4.976L40,106.2a1.844,1.844,0,0,1-2.287,1.246l-2.01-.591a1.242,1.242,0,0,1-.842-1.543l1.2-4.076a1.249,1.249,0,0,1,1.191-.895,1.294,1.294,0,0,1,.352.05l2.01.591a1.843,1.843,0,0,1,1.246,2.287Z" transform="translate(0 -65.691)" fill="#fff"/>
      </g>
    </g>
  </g>
</svg>
