<svg width="582" height="481" viewBox="0 0 582 481" fill="none" xmlns="http://www.w3.org/2000/svg">
<path d="M110.615 210.036C106.112 233.774 106.433 258.175 111.559 281.786" stroke="#969696" stroke-width="2" stroke-linecap="round" stroke-linejoin="round"/>
<path d="M116.985 218.013L110.785 209.52L102.18 215.603" stroke="#969696" stroke-width="2" stroke-linecap="round" stroke-linejoin="round"/>
<path d="M169.619 379.238C187.864 394.98 209.102 406.871 232.059 414.197" stroke="#969696" stroke-width="2" stroke-linecap="round" stroke-linejoin="round"/>
<path d="M179.765 377.769L169.321 378.917L170.354 389.361" stroke="#969696" stroke-width="2" stroke-linecap="round" stroke-linejoin="round"/>
<path d="M345.472 412.69C368.204 404.75 389.1 392.306 406.909 376.101" stroke="#969696" stroke-width="2" stroke-linecap="round" stroke-linejoin="round"/>
<path d="M349.282 403.187L344.921 412.828L354.562 417.187" stroke="#969696" stroke-width="2" stroke-linecap="round" stroke-linejoin="round"/>
<path d="M462.39 277.123C464.492 266.068 465.549 254.84 465.546 243.587C465.55 230.733 464.172 217.916 461.437 205.357" stroke="#969696" stroke-width="2" stroke-linecap="round" stroke-linejoin="round"/>
<path d="M456.043 269.055L462.243 277.663L470.851 271.463" stroke="#969696" stroke-width="2" stroke-linecap="round" stroke-linejoin="round"/>
<path d="M403.363 107.94C385.127 92.202 363.898 80.3144 340.95 72.9919" stroke="#969696" stroke-width="2" stroke-linecap="round" stroke-linejoin="round"/>
<path d="M393.171 109.375L403.73 108.342L402.697 97.7829" stroke="#969696" stroke-width="2" stroke-linecap="round" stroke-linejoin="round"/>
<path d="M227.533 74.4942C204.806 82.4299 183.913 94.871 166.108 111.072" stroke="#969696" stroke-width="2" stroke-linecap="round" stroke-linejoin="round"/>
<path d="M223.723 83.9722L228.084 74.3312L218.444 69.9722" stroke="#969696" stroke-width="2" stroke-linecap="round" stroke-linejoin="round"/>
<path d="M249.403 2.14H251.583V17.9H249.403V2.14ZM245.623 6.26H255.963V8H245.623V6.26ZM246.163 14.34H255.583V16.06H246.163V14.34ZM246.663 11.6H255.083V13.34H246.663V11.6ZM241.923 3.62H244.703V5.54H241.923V3.62ZM242.943 9.1H245.143V10.84H242.943V9.1ZM244.163 3.62H244.423L244.763 3.52L246.263 3.92C245.996 4.66667 245.683 5.48667 245.323 6.38C244.976 7.27333 244.61 8.17333 244.223 9.08C243.836 9.98667 243.463 10.8467 243.103 11.66L241.143 11.22C241.41 10.6067 241.69 9.96667 241.983 9.3C242.276 8.62 242.556 7.94667 242.823 7.28C243.09 6.6 243.336 5.96667 243.563 5.38C243.803 4.79333 244.003 4.28 244.163 3.84V3.62ZM244.543 9.1H244.943L245.303 9.06L246.563 9.28C246.363 12.1067 245.923 14.46 245.243 16.34C244.563 18.22 243.543 19.6933 242.183 20.76C242.103 20.5733 241.983 20.3667 241.823 20.14C241.676 19.9267 241.516 19.7067 241.343 19.48C241.183 19.2667 241.023 19.0933 240.863 18.96C241.596 18.4533 242.216 17.74 242.723 16.82C243.23 15.8867 243.636 14.7933 243.943 13.54C244.25 12.2867 244.45 10.92 244.543 9.44V9.1ZM243.063 12.1C243.33 13.4067 243.69 14.4733 244.143 15.3C244.596 16.1267 245.13 16.7667 245.743 17.22C246.37 17.6733 247.076 17.9867 247.863 18.16C248.663 18.32 249.53 18.4 250.463 18.4C250.65 18.4 250.923 18.4 251.283 18.4C251.656 18.4 252.07 18.4 252.523 18.4C252.99 18.4 253.45 18.4 253.903 18.4C254.37 18.3867 254.803 18.38 255.203 18.38C255.603 18.38 255.91 18.3733 256.123 18.36C256.03 18.5333 255.93 18.7467 255.823 19C255.716 19.2667 255.623 19.5333 255.543 19.8C255.463 20.0667 255.403 20.3067 255.363 20.52H254.403H250.343C249.143 20.52 248.063 20.4067 247.103 20.18C246.143 19.9667 245.29 19.5733 244.543 19C243.796 18.44 243.15 17.6467 242.603 16.62C242.07 15.58 241.616 14.2467 241.243 12.62L243.063 12.1ZM246.903 3.64H254.963V10.68H246.903V8.94H252.963V5.38H246.903V3.64ZM240.323 2.08L242.463 2.7C242.116 3.80667 241.696 4.92667 241.203 6.06C240.723 7.18 240.196 8.24667 239.623 9.26C239.05 10.2733 238.436 11.1667 237.783 11.94C237.743 11.74 237.656 11.48 237.523 11.16C237.403 10.8267 237.27 10.4933 237.123 10.16C236.99 9.82667 236.856 9.55333 236.723 9.34C237.483 8.44667 238.17 7.36 238.783 6.08C239.41 4.78667 239.923 3.45333 240.323 2.08ZM238.963 7.84L241.023 5.78L241.043 5.82V20.76H238.963V7.84ZM261.343 9.3H275.863V10.98H261.343V9.3ZM262.503 6.8H274.063V13.56H262.283V11.94H271.803V8.4H262.503V6.8ZM266.703 5.64H269.003V18.44C269.003 19.0267 268.923 19.4733 268.763 19.78C268.616 20.0867 268.35 20.32 267.963 20.48C267.576 20.64 267.09 20.7333 266.503 20.76C265.93 20.8 265.23 20.82 264.403 20.82C264.35 20.54 264.256 20.2 264.123 19.8C263.99 19.4133 263.843 19.08 263.683 18.8C264.03 18.8133 264.376 18.8267 264.723 18.84C265.07 18.8533 265.383 18.86 265.663 18.86C265.943 18.8467 266.136 18.84 266.243 18.84C266.416 18.84 266.536 18.8067 266.603 18.74C266.67 18.6733 266.703 18.5667 266.703 18.42V5.64ZM261.323 14.78L262.643 13.48C262.963 13.64 263.303 13.8267 263.663 14.04C264.036 14.24 264.39 14.4533 264.723 14.68C265.056 14.8933 265.336 15.0933 265.563 15.28L264.163 16.7C263.976 16.5 263.716 16.2867 263.383 16.06C263.063 15.8333 262.723 15.6067 262.363 15.38C262.003 15.1533 261.656 14.9533 261.323 14.78ZM273.303 13.64L275.083 15.06C274.443 15.46 273.783 15.86 273.103 16.26C272.423 16.6467 271.796 16.9667 271.223 17.22L269.863 16.02C270.236 15.82 270.63 15.5867 271.043 15.32C271.47 15.04 271.883 14.7533 272.283 14.46C272.683 14.1533 273.023 13.88 273.303 13.64ZM269.403 13.04C269.896 14.3733 270.656 15.5333 271.683 16.52C272.723 17.4933 274.01 18.2 275.543 18.64C275.303 18.8667 275.036 19.1667 274.743 19.54C274.463 19.9267 274.243 20.2733 274.083 20.58C272.456 19.98 271.116 19.0733 270.063 17.86C269.01 16.6467 268.19 15.1867 267.603 13.48L269.403 13.04ZM260.503 18.16C261.17 17.9467 261.963 17.6667 262.883 17.32C263.816 16.9733 264.763 16.6133 265.723 16.24L266.143 17.98C265.383 18.3533 264.603 18.72 263.803 19.08C263.016 19.44 262.283 19.7667 261.603 20.06L260.503 18.16ZM265.883 2H268.383V4.84H265.883V2ZM259.823 3.72H275.643V5.82H259.823V3.72ZM258.703 3.72H260.983V9.54C260.983 10.3533 260.956 11.2533 260.903 12.24C260.85 13.2267 260.75 14.24 260.603 15.28C260.456 16.3067 260.243 17.3 259.963 18.26C259.683 19.22 259.316 20.0933 258.863 20.88C258.73 20.7333 258.543 20.5733 258.303 20.4C258.063 20.2267 257.816 20.06 257.563 19.9C257.31 19.7533 257.096 19.64 256.923 19.56C257.336 18.84 257.663 18.06 257.903 17.22C258.143 16.3667 258.316 15.4933 258.423 14.6C258.543 13.6933 258.616 12.8067 258.643 11.94C258.683 11.0733 258.703 10.2733 258.703 9.54V3.72ZM286.503 8.84C286.983 8.84 287.41 8.96 287.783 9.2C288.17 9.42667 288.476 9.73333 288.703 10.12C288.943 10.4933 289.063 10.92 289.063 11.4C289.063 11.8667 288.943 12.2933 288.703 12.68C288.476 13.0667 288.17 13.38 287.783 13.62C287.41 13.8467 286.983 13.96 286.503 13.96C286.036 13.96 285.61 13.8467 285.223 13.62C284.836 13.38 284.523 13.0667 284.283 12.68C284.056 12.2933 283.943 11.8667 283.943 11.4C283.943 10.92 284.056 10.4933 284.283 10.12C284.523 9.73333 284.836 9.42667 285.223 9.2C285.61 8.96 286.036 8.84 286.503 8.84ZM300.663 5.64H314.583V7.98H300.663V5.64ZM299.823 11.52H313.803V13.84H299.823V11.52ZM297.523 17.88H315.603V20.22H297.523V17.88ZM305.283 2H307.803V19.02H305.283V2ZM300.663 2.26L303.143 2.82C302.863 3.84667 302.516 4.86 302.103 5.86C301.69 6.86 301.243 7.79333 300.763 8.66C300.283 9.51333 299.783 10.26 299.263 10.9C299.103 10.7533 298.89 10.5933 298.623 10.42C298.37 10.2333 298.103 10.0533 297.823 9.88C297.543 9.70667 297.303 9.56667 297.103 9.46C297.636 8.9 298.123 8.23333 298.563 7.46C299.016 6.68667 299.416 5.85333 299.763 4.96C300.123 4.06667 300.423 3.16667 300.663 2.26ZM324.343 12.68H334.843V20.68H332.543V14.86H326.543V20.78H324.343V12.68ZM333.243 2L335.083 3.88C334.11 4.25333 333.03 4.58 331.843 4.86C330.656 5.12667 329.436 5.34667 328.183 5.52C326.943 5.69333 325.73 5.83333 324.543 5.94C324.503 5.66 324.41 5.32 324.263 4.92C324.13 4.50667 323.996 4.16667 323.863 3.9C324.716 3.80667 325.576 3.7 326.443 3.58C327.323 3.46 328.176 3.32 329.003 3.16C329.83 3 330.603 2.82667 331.323 2.64C332.043 2.44 332.683 2.22667 333.243 2ZM328.443 4.26H330.723V13.94H328.443V4.26ZM323.103 7.84H335.843V10.12H323.103V7.84ZM325.923 17.78H333.503V19.96H325.923V17.78ZM318.163 4L319.523 2.26C319.896 2.44667 320.316 2.66 320.783 2.9C321.25 3.14 321.703 3.38 322.143 3.62C322.596 3.86 322.963 4.07333 323.243 4.26L321.823 6.2C321.556 6 321.21 5.77333 320.783 5.52C320.356 5.26667 319.91 5.00667 319.443 4.74C318.976 4.46 318.55 4.21333 318.163 4ZM317.203 9.54L318.503 7.76C318.876 7.92 319.303 8.12 319.783 8.36C320.263 8.6 320.73 8.84 321.183 9.08C321.636 9.30667 322.003 9.51333 322.283 9.7L320.943 11.7C320.676 11.5 320.323 11.2733 319.883 11.02C319.456 10.7667 319.003 10.5067 318.523 10.24C318.043 9.97333 317.603 9.74 317.203 9.54ZM317.503 18.94C317.863 18.4333 318.256 17.84 318.683 17.16C319.123 16.4667 319.57 15.7333 320.023 14.96C320.476 14.1733 320.903 13.3933 321.303 12.62L323.063 14.22C322.716 14.9133 322.343 15.6267 321.943 16.36C321.556 17.0933 321.156 17.8133 320.743 18.52C320.343 19.2267 319.936 19.9067 319.523 20.56L317.503 18.94Z" fill="#484848"/>
<path d="M486.934 150.817V158.197H484.634V153.037H482.374V150.817H486.934ZM486.934 157.237C487.321 157.904 487.867 158.397 488.574 158.717C489.281 159.024 490.141 159.197 491.154 159.237C491.754 159.264 492.474 159.284 493.314 159.297C494.167 159.297 495.054 159.29 495.974 159.277C496.907 159.264 497.814 159.244 498.694 159.217C499.587 159.177 500.387 159.124 501.094 159.057C501.001 159.23 500.901 159.464 500.794 159.757C500.701 160.037 500.607 160.324 500.514 160.617C500.434 160.91 500.374 161.17 500.334 161.397C499.721 161.437 499.014 161.464 498.214 161.477C497.414 161.49 496.587 161.497 495.734 161.497C494.881 161.51 494.054 161.51 493.254 161.497C492.454 161.497 491.747 161.484 491.134 161.457C489.934 161.404 488.914 161.21 488.074 160.877C487.234 160.544 486.514 159.99 485.914 159.217C485.527 159.617 485.114 160.01 484.674 160.397C484.247 160.797 483.781 161.21 483.274 161.637L482.134 159.257C482.561 158.977 483.007 158.664 483.474 158.317C483.954 157.97 484.414 157.61 484.854 157.237H486.934ZM482.454 144.897L484.274 143.537C484.661 143.83 485.061 144.164 485.474 144.537C485.887 144.91 486.267 145.284 486.614 145.657C486.961 146.03 487.241 146.384 487.454 146.717L485.474 148.237C485.287 147.904 485.027 147.544 484.694 147.157C484.374 146.757 484.014 146.364 483.614 145.977C483.214 145.577 482.827 145.217 482.454 144.897ZM492.914 145.717H495.234V158.777H492.914V145.717ZM490.874 152.737V153.537H497.354V152.737H490.874ZM490.874 150.597V151.377H497.354V150.597H490.874ZM488.834 149.117H499.514V155.017H488.834V149.117ZM487.874 143.657H500.494V146.397H498.274V145.357H489.974V146.397H487.874V143.657ZM488.434 146.737H499.834V148.377H488.434V146.737ZM487.694 155.737H500.714V157.477H487.694V155.737ZM502.774 155.957H512.114V157.657H502.774V155.957ZM502.334 146.437H512.334V148.177H502.334V146.437ZM506.294 145.037H508.474V159.377H506.294V145.037ZM502.214 159.137C503.054 159.084 504.014 159.017 505.094 158.937C506.174 158.857 507.314 158.77 508.514 158.677C509.727 158.57 510.934 158.464 512.134 158.357L512.154 160.177C511.021 160.297 509.874 160.417 508.714 160.537C507.567 160.657 506.461 160.764 505.394 160.857C504.341 160.964 503.374 161.064 502.494 161.157L502.214 159.137ZM504.754 152.777V153.677H510.034V152.777H504.754ZM504.754 150.457V151.357H510.034V150.457H504.754ZM502.854 148.957H512.014V155.177H502.854V148.957ZM511.054 143.137L512.094 144.917C511.254 145.09 510.307 145.244 509.254 145.377C508.214 145.497 507.147 145.597 506.054 145.677C504.961 145.744 503.914 145.79 502.914 145.817C502.874 145.564 502.801 145.277 502.694 144.957C502.601 144.624 502.494 144.337 502.374 144.097C503.121 144.057 503.887 144.01 504.674 143.957C505.461 143.89 506.234 143.817 506.994 143.737C507.767 143.657 508.494 143.57 509.174 143.477C509.867 143.37 510.494 143.257 511.054 143.137ZM512.314 147.557H519.254V149.757H512.314V147.557ZM518.274 147.557H520.574C520.574 147.557 520.574 147.624 520.574 147.757C520.574 147.89 520.574 148.044 520.574 148.217C520.574 148.377 520.574 148.51 520.574 148.617C520.521 150.67 520.467 152.417 520.414 153.857C520.361 155.284 520.301 156.464 520.234 157.397C520.181 158.317 520.094 159.037 519.974 159.557C519.867 160.077 519.734 160.45 519.574 160.677C519.347 161.01 519.107 161.244 518.854 161.377C518.614 161.524 518.327 161.63 517.994 161.697C517.687 161.75 517.314 161.777 516.874 161.777C516.434 161.79 515.974 161.79 515.494 161.777C515.481 161.444 515.407 161.057 515.274 160.617C515.154 160.177 515.001 159.797 514.814 159.477C515.241 159.517 515.634 159.544 515.994 159.557C516.354 159.57 516.627 159.577 516.814 159.577C516.974 159.577 517.107 159.55 517.214 159.497C517.321 159.444 517.421 159.357 517.514 159.237C517.621 159.077 517.714 158.77 517.794 158.317C517.874 157.85 517.941 157.19 517.994 156.337C518.061 155.47 518.114 154.357 518.154 152.997C518.207 151.637 518.247 149.99 518.274 148.057V147.557ZM514.234 143.357H516.534C516.534 145.064 516.514 146.684 516.474 148.217C516.447 149.75 516.361 151.197 516.214 152.557C516.081 153.904 515.847 155.157 515.514 156.317C515.194 157.464 514.741 158.51 514.154 159.457C513.567 160.404 512.814 161.237 511.894 161.957C511.774 161.757 511.614 161.544 511.414 161.317C511.227 161.09 511.027 160.87 510.814 160.657C510.614 160.457 510.414 160.29 510.214 160.157C511.054 159.517 511.734 158.784 512.254 157.957C512.774 157.117 513.174 156.19 513.454 155.177C513.734 154.15 513.927 153.03 514.034 151.817C514.141 150.59 514.201 149.277 514.214 147.877C514.227 146.464 514.234 144.957 514.234 143.357ZM531.614 149.857C532.094 149.857 532.521 149.977 532.894 150.217C533.281 150.444 533.587 150.75 533.814 151.137C534.054 151.51 534.174 151.937 534.174 152.417C534.174 152.884 534.054 153.31 533.814 153.697C533.587 154.084 533.281 154.397 532.894 154.637C532.521 154.864 532.094 154.977 531.614 154.977C531.147 154.977 530.721 154.864 530.334 154.637C529.947 154.397 529.634 154.084 529.394 153.697C529.167 153.31 529.054 152.884 529.054 152.417C529.054 151.937 529.167 151.51 529.394 151.137C529.634 150.75 529.947 150.444 530.334 150.217C530.721 149.977 531.147 149.857 531.614 149.857ZM555.174 144.157L556.354 142.817C556.834 142.977 557.341 143.184 557.874 143.437C558.407 143.677 558.834 143.924 559.154 144.177L557.914 145.617C557.621 145.39 557.207 145.137 556.674 144.857C556.154 144.564 555.654 144.33 555.174 144.157ZM544.994 144.877H560.394V146.797H544.994V144.877ZM546.514 147.717H552.434V149.257H546.514V147.717ZM546.594 150.217H548.514V153.897H546.594V150.217ZM556.994 147.297L559.214 147.817C558.627 149.444 557.834 150.917 556.834 152.237C555.847 153.544 554.727 154.617 553.474 155.457C553.367 155.297 553.214 155.117 553.014 154.917C552.814 154.704 552.607 154.497 552.394 154.297C552.181 154.084 551.994 153.91 551.834 153.777C553.021 153.084 554.061 152.177 554.954 151.057C555.847 149.937 556.527 148.684 556.994 147.297ZM552.274 143.017H554.534C554.574 144.404 554.721 145.73 554.974 146.997C555.227 148.25 555.541 149.364 555.914 150.337C556.301 151.31 556.721 152.077 557.174 152.637C557.627 153.197 558.074 153.477 558.514 153.477C558.754 153.477 558.921 153.29 559.014 152.917C559.107 152.544 559.181 151.93 559.234 151.077C559.487 151.29 559.781 151.497 560.114 151.697C560.461 151.884 560.774 152.024 561.054 152.117C560.947 153.064 560.787 153.79 560.574 154.297C560.374 154.804 560.094 155.157 559.734 155.357C559.374 155.544 558.927 155.637 558.394 155.637C557.701 155.637 557.047 155.417 556.434 154.977C555.834 154.537 555.287 153.924 554.794 153.137C554.314 152.337 553.894 151.404 553.534 150.337C553.174 149.27 552.887 148.117 552.674 146.877C552.474 145.637 552.341 144.35 552.274 143.017ZM546.594 150.217H552.294V154.557H546.594V153.017H550.334V151.737H546.594V150.217ZM547.374 156.237H549.754V158.797C549.754 159.077 549.814 159.25 549.934 159.317C550.067 159.384 550.374 159.417 550.854 159.417C550.961 159.417 551.127 159.417 551.354 159.417C551.594 159.417 551.854 159.417 552.134 159.417C552.427 159.417 552.701 159.417 552.954 159.417C553.221 159.417 553.421 159.417 553.554 159.417C553.821 159.417 554.014 159.377 554.134 159.297C554.267 159.217 554.361 159.05 554.414 158.797C554.481 158.544 554.527 158.157 554.554 157.637C554.714 157.744 554.921 157.857 555.174 157.977C555.427 158.084 555.687 158.184 555.954 158.277C556.221 158.357 556.461 158.417 556.674 158.457C556.581 159.284 556.434 159.917 556.234 160.357C556.034 160.81 555.741 161.124 555.354 161.297C554.967 161.47 554.447 161.557 553.794 161.557C553.674 161.557 553.507 161.557 553.294 161.557C553.081 161.557 552.841 161.557 552.574 161.557C552.307 161.557 552.041 161.557 551.774 161.557C551.507 161.557 551.267 161.557 551.054 161.557C550.841 161.557 550.681 161.557 550.574 161.557C549.707 161.557 549.041 161.47 548.574 161.297C548.121 161.137 547.807 160.857 547.634 160.457C547.461 160.057 547.374 159.517 547.374 158.837V156.237ZM549.214 155.697L550.774 154.397C551.147 154.597 551.527 154.83 551.914 155.097C552.314 155.364 552.687 155.637 553.034 155.917C553.381 156.197 553.661 156.464 553.874 156.717L552.194 158.157C552.007 157.904 551.747 157.63 551.414 157.337C551.081 157.044 550.721 156.75 550.334 156.457C549.961 156.164 549.587 155.91 549.214 155.697ZM555.794 156.917L557.794 155.917C558.234 156.317 558.667 156.757 559.094 157.237C559.521 157.717 559.907 158.204 560.254 158.697C560.601 159.19 560.861 159.657 561.034 160.097L558.854 161.197C558.694 160.784 558.454 160.33 558.134 159.837C557.827 159.33 557.467 158.824 557.054 158.317C556.654 157.81 556.234 157.344 555.794 156.917ZM544.694 156.217L546.834 156.977C546.581 157.804 546.247 158.617 545.834 159.417C545.434 160.204 544.887 160.864 544.194 161.397L542.214 160.057C542.814 159.604 543.321 159.037 543.734 158.357C544.147 157.677 544.467 156.964 544.694 156.217ZM543.854 144.877H546.074V147.957C546.074 148.57 546.041 149.237 545.974 149.957C545.907 150.677 545.794 151.41 545.634 152.157C545.474 152.89 545.241 153.61 544.934 154.317C544.641 155.01 544.254 155.644 543.774 156.217C543.667 156.07 543.501 155.897 543.274 155.697C543.061 155.497 542.834 155.31 542.594 155.137C542.367 154.95 542.181 154.824 542.034 154.757C542.594 154.077 543.001 153.337 543.254 152.537C543.507 151.737 543.667 150.937 543.734 150.137C543.814 149.324 543.854 148.584 543.854 147.917V144.877ZM568.394 152.757V153.677H574.834V152.757H568.394ZM568.394 155.017V155.977H574.834V155.017H568.394ZM568.394 150.477V151.397H574.834V150.477H568.394ZM566.174 149.057H577.174V157.417H566.174V149.057ZM568.174 156.837H570.634C570.514 157.53 570.327 158.15 570.074 158.697C569.834 159.244 569.461 159.717 568.954 160.117C568.447 160.517 567.754 160.857 566.874 161.137C565.994 161.43 564.867 161.67 563.494 161.857C563.441 161.657 563.347 161.424 563.214 161.157C563.081 160.89 562.934 160.63 562.774 160.377C562.614 160.137 562.454 159.937 562.294 159.777C563.481 159.67 564.441 159.544 565.174 159.397C565.907 159.237 566.474 159.044 566.874 158.817C567.287 158.59 567.587 158.317 567.774 157.997C567.961 157.664 568.094 157.277 568.174 156.837ZM572.574 156.817H574.954V158.997C574.954 159.264 575.001 159.43 575.094 159.497C575.201 159.55 575.447 159.577 575.834 159.577C575.914 159.577 576.047 159.577 576.234 159.577C576.434 159.577 576.641 159.577 576.854 159.577C577.081 159.577 577.294 159.577 577.494 159.577C577.694 159.577 577.847 159.577 577.954 159.577C578.167 159.577 578.327 159.544 578.434 159.477C578.554 159.397 578.634 159.23 578.674 158.977C578.727 158.724 578.767 158.33 578.794 157.797C578.954 157.917 579.154 158.037 579.394 158.157C579.647 158.264 579.907 158.364 580.174 158.457C580.454 158.537 580.694 158.597 580.894 158.637C580.814 159.464 580.674 160.097 580.474 160.537C580.274 160.977 579.994 161.277 579.634 161.437C579.274 161.61 578.801 161.697 578.214 161.697C578.107 161.697 577.961 161.697 577.774 161.697C577.601 161.697 577.401 161.697 577.174 161.697C576.947 161.697 576.727 161.697 576.514 161.697C576.301 161.697 576.101 161.697 575.914 161.697C575.741 161.697 575.607 161.697 575.514 161.697C574.714 161.697 574.101 161.61 573.674 161.437C573.261 161.277 572.974 160.997 572.814 160.597C572.654 160.21 572.574 159.69 572.574 159.037V156.817ZM563.134 146.197H580.274V150.617H577.974V148.177H565.334V150.617H563.134V146.197ZM576.434 143.137L579.014 143.917C578.574 144.477 578.134 145.03 577.694 145.577C577.254 146.11 576.854 146.57 576.494 146.957L574.514 146.217C574.741 145.924 574.974 145.604 575.214 145.257C575.454 144.897 575.681 144.537 575.894 144.177C576.107 143.804 576.287 143.457 576.434 143.137ZM564.254 144.217L566.294 143.317C566.641 143.677 566.987 144.09 567.334 144.557C567.694 145.01 567.961 145.417 568.134 145.777L565.934 146.777C565.787 146.43 565.554 146.017 565.234 145.537C564.914 145.044 564.587 144.604 564.254 144.217ZM569.354 143.737L571.454 143.017C571.734 143.404 572.021 143.85 572.314 144.357C572.607 144.85 572.821 145.277 572.954 145.637L570.754 146.457C570.634 146.097 570.441 145.657 570.174 145.137C569.907 144.617 569.634 144.15 569.354 143.737Z" fill="#484848"/>
<path d="M493.574 323.679H495.734C495.641 324.479 495.501 325.286 495.314 326.099C495.141 326.899 494.874 327.672 494.514 328.419C494.154 329.152 493.674 329.846 493.074 330.499C492.487 331.139 491.727 331.699 490.794 332.179C490.674 331.899 490.481 331.592 490.214 331.259C489.947 330.926 489.694 330.666 489.454 330.479C490.254 330.092 490.907 329.639 491.414 329.119C491.921 328.599 492.321 328.039 492.614 327.439C492.907 326.839 493.121 326.219 493.254 325.579C493.401 324.939 493.507 324.306 493.574 323.679ZM490.114 327.099L491.234 325.439C491.901 325.626 492.581 325.866 493.274 326.159C493.981 326.452 494.647 326.759 495.274 327.079C495.914 327.399 496.454 327.699 496.894 327.979L495.754 329.839C495.327 329.519 494.794 329.192 494.154 328.859C493.527 328.512 492.861 328.186 492.154 327.879C491.461 327.559 490.781 327.299 490.114 327.099ZM498.154 322.839H500.394C500.394 322.839 500.394 322.899 500.394 323.019C500.394 323.126 500.387 323.252 500.374 323.399C500.374 323.532 500.367 323.639 500.354 323.719C500.301 325.239 500.234 326.486 500.154 327.459C500.074 328.419 499.974 329.166 499.854 329.699C499.747 330.219 499.607 330.586 499.434 330.799C499.234 331.052 499.027 331.232 498.814 331.339C498.614 331.446 498.374 331.519 498.094 331.559C497.854 331.612 497.541 331.646 497.154 331.659C496.767 331.659 496.354 331.652 495.914 331.639C495.901 331.306 495.834 330.939 495.714 330.539C495.607 330.126 495.474 329.772 495.314 329.479C495.661 329.519 495.974 329.546 496.254 329.559C496.534 329.559 496.754 329.559 496.914 329.559C497.167 329.572 497.367 329.492 497.514 329.319C497.607 329.186 497.694 328.912 497.774 328.499C497.854 328.072 497.921 327.432 497.974 326.579C498.041 325.726 498.101 324.599 498.154 323.199V322.839ZM492.314 333.639H494.514V337.999C494.514 338.279 494.541 338.459 494.594 338.539C494.647 338.606 494.767 338.639 494.954 338.639C494.994 338.639 495.061 338.639 495.154 338.639C495.247 338.639 495.347 338.639 495.454 338.639C495.561 338.639 495.661 338.639 495.754 338.639C495.861 338.639 495.934 338.639 495.974 338.639C496.107 338.639 496.207 338.592 496.274 338.499C496.341 338.406 496.394 338.212 496.434 337.919C496.474 337.612 496.501 337.152 496.514 336.539C496.647 336.646 496.827 336.759 497.054 336.879C497.294 336.986 497.534 337.086 497.774 337.179C498.027 337.259 498.254 337.332 498.454 337.399C498.387 338.266 498.267 338.939 498.094 339.419C497.934 339.912 497.701 340.246 497.394 340.419C497.101 340.606 496.714 340.699 496.234 340.699C496.141 340.699 496.014 340.699 495.854 340.699C495.707 340.699 495.554 340.699 495.394 340.699C495.234 340.699 495.081 340.699 494.934 340.699C494.787 340.699 494.667 340.699 494.574 340.699C493.961 340.699 493.487 340.612 493.154 340.439C492.834 340.279 492.614 340.006 492.494 339.619C492.374 339.232 492.314 338.706 492.314 338.039V333.639ZM490.274 334.419L492.174 334.919C492.121 335.506 492.034 336.099 491.914 336.699C491.794 337.299 491.634 337.866 491.434 338.399C491.234 338.919 490.967 339.379 490.634 339.779L488.874 338.719C489.154 338.372 489.387 337.972 489.574 337.519C489.761 337.052 489.907 336.552 490.014 336.019C490.134 335.486 490.221 334.952 490.274 334.419ZM492.774 332.259L494.154 330.859C494.581 331.072 495.021 331.326 495.474 331.619C495.927 331.899 496.354 332.199 496.754 332.519C497.167 332.826 497.501 333.119 497.754 333.399L496.254 334.959C496.027 334.666 495.721 334.359 495.334 334.039C494.961 333.719 494.547 333.406 494.094 333.099C493.641 332.779 493.201 332.499 492.774 332.259ZM497.174 334.739L499.114 333.959C499.474 334.466 499.801 335.012 500.094 335.599C500.387 336.186 500.641 336.772 500.854 337.359C501.067 337.932 501.221 338.452 501.314 338.919L499.194 339.799C499.141 339.319 499.014 338.792 498.814 338.219C498.614 337.632 498.374 337.032 498.094 336.419C497.814 335.806 497.507 335.246 497.174 334.739ZM490.394 322.839H499.174V324.839H490.394V322.839ZM483.114 328.199H488.974V330.019H483.114V328.199ZM483.194 322.699H488.934V324.499H483.194V322.699ZM483.114 330.939H488.974V332.739H483.114V330.939ZM482.214 325.379H489.514V327.279H482.214V325.379ZM484.154 333.699H489.014V339.799H484.154V337.899H487.014V335.599H484.154V333.699ZM483.074 333.699H485.054V340.579H483.074V333.699ZM513.394 336.559H518.874V338.819H513.394V336.559ZM512.334 323.799H519.994V339.979H517.574V326.039H514.654V340.279H512.334V323.799ZM506.074 325.679H508.494V329.519C508.494 330.372 508.434 331.299 508.314 332.299C508.207 333.299 507.981 334.312 507.634 335.339C507.301 336.366 506.821 337.352 506.194 338.299C505.581 339.232 504.774 340.066 503.774 340.799C503.667 340.626 503.507 340.419 503.294 340.179C503.081 339.939 502.861 339.706 502.634 339.479C502.421 339.252 502.227 339.086 502.054 338.979C502.974 338.326 503.701 337.606 504.234 336.819C504.781 336.019 505.181 335.199 505.434 334.359C505.701 333.506 505.874 332.666 505.954 331.839C506.034 330.999 506.074 330.219 506.074 329.499V325.679ZM504.434 324.599H511.314V326.819H504.434V324.599ZM502.354 329.999H511.794V332.259H502.354V329.999ZM507.914 332.799C508.074 332.946 508.294 333.172 508.574 333.479C508.867 333.772 509.181 334.106 509.514 334.479C509.847 334.852 510.181 335.226 510.514 335.599C510.847 335.972 511.141 336.312 511.394 336.619C511.661 336.912 511.854 337.132 511.974 337.279L510.354 339.319C510.167 339.026 509.947 338.699 509.694 338.339C509.441 337.966 509.167 337.586 508.874 337.199C508.581 336.812 508.287 336.432 507.994 336.059C507.701 335.686 507.414 335.339 507.134 335.019C506.867 334.686 506.634 334.399 506.434 334.159L507.914 332.799ZM504.214 322.079L506.514 322.539C506.354 323.419 506.141 324.286 505.874 325.139C505.607 325.979 505.307 326.779 504.974 327.539C504.641 328.286 504.287 328.939 503.914 329.499C503.767 329.366 503.574 329.212 503.334 329.039C503.107 328.866 502.867 328.692 502.614 328.519C502.361 328.346 502.147 328.212 501.974 328.119C502.521 327.386 502.981 326.479 503.354 325.399C503.741 324.319 504.027 323.212 504.214 322.079ZM531.614 328.899C532.094 328.899 532.521 329.019 532.894 329.259C533.281 329.486 533.587 329.792 533.814 330.179C534.054 330.552 534.174 330.979 534.174 331.459C534.174 331.926 534.054 332.352 533.814 332.739C533.587 333.126 533.281 333.439 532.894 333.679C532.521 333.906 532.094 334.019 531.614 334.019C531.147 334.019 530.721 333.906 530.334 333.679C529.947 333.439 529.634 333.126 529.394 332.739C529.167 332.352 529.054 331.926 529.054 331.459C529.054 330.979 529.167 330.552 529.394 330.179C529.634 329.792 529.947 329.486 530.334 329.259C530.721 329.019 531.147 328.899 531.614 328.899ZM550.554 323.199H560.314V325.499H550.554V323.199ZM555.614 329.439H558.074V338.079C558.074 338.706 557.994 339.199 557.834 339.559C557.687 339.932 557.394 340.212 556.954 340.399C556.514 340.572 555.974 340.679 555.334 340.719C554.694 340.772 553.927 340.799 553.034 340.799C552.981 340.452 552.881 340.039 552.734 339.559C552.601 339.092 552.454 338.692 552.294 338.359C552.681 338.372 553.067 338.386 553.454 338.399C553.841 338.412 554.187 338.419 554.494 338.419C554.801 338.406 555.014 338.399 555.134 338.399C555.321 338.399 555.447 338.372 555.514 338.319C555.581 338.252 555.614 338.152 555.614 338.019V329.439ZM549.694 328.759H560.834V331.039H549.694V328.759ZM545.194 331.119L547.294 328.999L547.594 329.119V340.879H545.194V331.119ZM547.454 326.419L549.734 327.299C549.214 328.179 548.607 329.066 547.914 329.959C547.234 330.839 546.514 331.672 545.754 332.459C545.007 333.246 544.274 333.932 543.554 334.519C543.447 334.346 543.294 334.132 543.094 333.879C542.894 333.612 542.687 333.346 542.474 333.079C542.274 332.812 542.087 332.599 541.914 332.439C542.607 331.959 543.294 331.399 543.974 330.759C544.654 330.106 545.294 329.412 545.894 328.679C546.494 327.932 547.014 327.179 547.454 326.419ZM546.694 322.059L549.014 323.019C548.521 323.646 547.967 324.286 547.354 324.939C546.741 325.579 546.101 326.192 545.434 326.779C544.767 327.366 544.114 327.879 543.474 328.319C543.381 328.132 543.254 327.919 543.094 327.679C542.934 327.426 542.767 327.179 542.594 326.939C542.434 326.699 542.281 326.499 542.134 326.339C542.694 325.992 543.261 325.572 543.834 325.079C544.407 324.586 544.947 324.079 545.454 323.559C545.961 323.026 546.374 322.526 546.694 322.059ZM562.774 334.999H572.114V336.699H562.774V334.999ZM562.334 325.479H572.334V327.219H562.334V325.479ZM566.294 324.079H568.474V338.419H566.294V324.079ZM562.214 338.179C563.054 338.126 564.014 338.059 565.094 337.979C566.174 337.899 567.314 337.812 568.514 337.719C569.727 337.612 570.934 337.506 572.134 337.399L572.154 339.219C571.021 339.339 569.874 339.459 568.714 339.579C567.567 339.699 566.461 339.806 565.394 339.899C564.341 340.006 563.374 340.106 562.494 340.199L562.214 338.179ZM564.754 331.819V332.719H570.034V331.819H564.754ZM564.754 329.499V330.399H570.034V329.499H564.754ZM562.854 327.999H572.014V334.219H562.854V327.999ZM571.054 322.179L572.094 323.959C571.254 324.132 570.307 324.286 569.254 324.419C568.214 324.539 567.147 324.639 566.054 324.719C564.961 324.786 563.914 324.832 562.914 324.859C562.874 324.606 562.801 324.319 562.694 323.999C562.601 323.666 562.494 323.379 562.374 323.139C563.121 323.099 563.887 323.052 564.674 322.999C565.461 322.932 566.234 322.859 566.994 322.779C567.767 322.699 568.494 322.612 569.174 322.519C569.867 322.412 570.494 322.299 571.054 322.179ZM572.314 326.599H579.254V328.799H572.314V326.599ZM578.274 326.599H580.574C580.574 326.599 580.574 326.666 580.574 326.799C580.574 326.932 580.574 327.086 580.574 327.259C580.574 327.419 580.574 327.552 580.574 327.659C580.521 329.712 580.467 331.459 580.414 332.899C580.361 334.326 580.301 335.506 580.234 336.439C580.181 337.359 580.094 338.079 579.974 338.599C579.867 339.119 579.734 339.492 579.574 339.719C579.347 340.052 579.107 340.286 578.854 340.419C578.614 340.566 578.327 340.672 577.994 340.739C577.687 340.792 577.314 340.819 576.874 340.819C576.434 340.832 575.974 340.832 575.494 340.819C575.481 340.486 575.407 340.099 575.274 339.659C575.154 339.219 575.001 338.839 574.814 338.519C575.241 338.559 575.634 338.586 575.994 338.599C576.354 338.612 576.627 338.619 576.814 338.619C576.974 338.619 577.107 338.592 577.214 338.539C577.321 338.486 577.421 338.399 577.514 338.279C577.621 338.119 577.714 337.812 577.794 337.359C577.874 336.892 577.941 336.232 577.994 335.379C578.061 334.512 578.114 333.399 578.154 332.039C578.207 330.679 578.247 329.032 578.274 327.099V326.599ZM574.234 322.399H576.534C576.534 324.106 576.514 325.726 576.474 327.259C576.447 328.792 576.361 330.239 576.214 331.599C576.081 332.946 575.847 334.199 575.514 335.359C575.194 336.506 574.741 337.552 574.154 338.499C573.567 339.446 572.814 340.279 571.894 340.999C571.774 340.799 571.614 340.586 571.414 340.359C571.227 340.132 571.027 339.912 570.814 339.699C570.614 339.499 570.414 339.332 570.214 339.199C571.054 338.559 571.734 337.826 572.254 336.999C572.774 336.159 573.174 335.232 573.454 334.219C573.734 333.192 573.927 332.072 574.034 330.859C574.141 329.632 574.201 328.319 574.214 326.919C574.227 325.506 574.234 323.999 574.234 322.399Z" fill="#484848"/>
<path d="M177.807 475.04H187.364V476.902H177.807V475.04ZM176.876 468.732H188.2V470.518H176.876V468.732ZM176.876 466.072H188.2V467.858H176.876V466.072ZM173.874 463.279H191.183V465.217H173.874V463.279ZM177.237 460.638H187.858V462.443H177.237V460.638ZM176.553 471.411H188.523V477.51H186.148V473.311H178.795V477.567H176.553V471.411ZM200.93 470.442H209.29V477.51H207.067V472.475H203.077V477.586H200.93V470.442ZM200.55 463.564H208.872V468.504H206.687V465.502H200.55V463.564ZM202.887 461.075L205.091 461.265C204.99 462.063 204.869 462.905 204.73 463.792C204.591 464.679 204.445 465.534 204.293 466.357C204.154 467.18 204.014 467.902 203.875 468.523H201.671C201.785 468.042 201.893 467.497 201.994 466.889C202.108 466.281 202.222 465.648 202.336 464.989C202.45 464.318 202.551 463.653 202.64 462.994C202.729 462.323 202.811 461.683 202.887 461.075ZM200.246 460.277H209.822V462.215H200.246V460.277ZM199.562 467.44H210.506V469.435H199.562V467.44ZM201.785 474.812H208.34V476.845H201.785V474.812ZM193.482 465.692H198.973V467.421H193.482V465.692ZM193.596 460.334H198.992V462.044H193.596V460.334ZM193.482 468.352H198.973V470.081H193.482V468.352ZM192.57 462.956H199.657V464.761H192.57V462.956ZM194.546 471.05H199.106V476.826H194.546V475.021H197.168V472.855H194.546V471.05ZM193.425 471.05H195.344V477.567H193.425V471.05ZM220.5 466.224C220.956 466.224 221.361 466.338 221.716 466.566C222.083 466.781 222.375 467.073 222.59 467.44C222.818 467.795 222.932 468.2 222.932 468.656C222.932 469.099 222.818 469.505 222.59 469.872C222.375 470.239 222.083 470.537 221.716 470.765C221.361 470.98 220.956 471.088 220.5 471.088C220.057 471.088 219.651 470.98 219.284 470.765C218.917 470.537 218.619 470.239 218.391 469.872C218.176 469.505 218.068 469.099 218.068 468.656C218.068 468.2 218.176 467.795 218.391 467.44C218.619 467.073 218.917 466.781 219.284 466.566C219.651 466.338 220.057 466.224 220.5 466.224ZM232.983 462.386C233.338 462.424 233.737 462.456 234.18 462.481C234.623 462.494 235.003 462.5 235.32 462.5H244.896C245.175 462.5 245.479 462.5 245.808 462.5C246.15 462.487 246.403 462.475 246.568 462.462C246.555 462.677 246.543 462.956 246.53 463.298C246.517 463.627 246.511 463.931 246.511 464.21V474.052C246.511 474.381 246.517 474.768 246.53 475.211C246.555 475.654 246.574 476.015 246.587 476.294H243.832C243.845 476.015 243.851 475.711 243.851 475.382C243.864 475.04 243.87 474.698 243.87 474.356V464.951H235.339C234.934 464.951 234.503 464.957 234.047 464.97C233.604 464.983 233.249 465.002 232.983 465.027V462.386ZM232.736 472.703C233.065 472.728 233.433 472.754 233.838 472.779C234.256 472.804 234.68 472.817 235.111 472.817H245.371V475.306H235.187C234.82 475.306 234.395 475.319 233.914 475.344C233.445 475.369 233.053 475.395 232.736 475.42V472.703ZM254.415 460.999C254.909 461.062 255.504 461.157 256.201 461.284C256.91 461.398 257.658 461.531 258.443 461.683C259.241 461.835 260.033 462.006 260.818 462.196C261.616 462.373 262.351 462.551 263.022 462.728C263.706 462.905 264.289 463.076 264.77 463.241L263.801 465.616C263.358 465.451 262.807 465.28 262.148 465.103C261.489 464.913 260.774 464.723 260.001 464.533C259.228 464.343 258.449 464.166 257.664 464.001C256.879 463.836 256.125 463.684 255.403 463.545C254.694 463.406 254.067 463.304 253.522 463.241L254.415 460.999ZM253.541 466.11C254.225 466.224 255.01 466.37 255.897 466.547C256.784 466.724 257.696 466.921 258.633 467.136C259.57 467.339 260.463 467.554 261.312 467.782C262.161 467.997 262.883 468.213 263.478 468.428L262.547 470.803C262.002 470.588 261.312 470.366 260.476 470.138C259.653 469.91 258.772 469.682 257.835 469.454C256.91 469.226 255.992 469.023 255.08 468.846C254.168 468.656 253.364 468.51 252.667 468.409L253.541 466.11ZM252.572 471.544C253.218 471.645 253.953 471.778 254.776 471.943C255.599 472.108 256.454 472.291 257.341 472.494C258.24 472.697 259.121 472.906 259.982 473.121C260.843 473.336 261.641 473.552 262.376 473.767C263.123 473.982 263.757 474.191 264.276 474.394L263.231 476.769C262.724 476.554 262.097 476.332 261.35 476.104C260.603 475.889 259.792 475.673 258.918 475.458C258.044 475.23 257.164 475.021 256.277 474.831C255.39 474.628 254.542 474.451 253.731 474.299C252.933 474.147 252.23 474.027 251.622 473.938L252.572 471.544ZM282.421 466.813C282.37 466.94 282.332 467.079 282.307 467.231C282.282 467.383 282.256 467.51 282.231 467.611C282.193 467.877 282.136 468.244 282.06 468.713C281.997 469.182 281.921 469.701 281.832 470.271C281.756 470.828 281.674 471.392 281.585 471.962C281.496 472.532 281.414 473.051 281.338 473.52C281.275 473.989 281.218 474.362 281.167 474.641H278.564C278.615 474.375 278.672 474.039 278.735 473.634C278.798 473.216 278.868 472.766 278.944 472.285C279.033 471.791 279.109 471.297 279.172 470.803C279.248 470.309 279.311 469.853 279.362 469.435C279.413 469.017 279.444 468.681 279.457 468.428C279.28 468.428 279.007 468.428 278.64 468.428C278.285 468.428 277.88 468.428 277.424 468.428C276.981 468.428 276.537 468.428 276.094 468.428C275.663 468.428 275.29 468.428 274.973 468.428C274.656 468.428 274.441 468.428 274.327 468.428C274.023 468.428 273.694 468.441 273.339 468.466C272.997 468.479 272.693 468.498 272.427 468.523V466.015C272.592 466.04 272.788 466.059 273.016 466.072C273.244 466.085 273.472 466.097 273.7 466.11C273.941 466.123 274.143 466.129 274.308 466.129C274.498 466.129 274.758 466.129 275.087 466.129C275.416 466.129 275.777 466.129 276.17 466.129C276.563 466.129 276.955 466.129 277.348 466.129C277.741 466.129 278.095 466.129 278.412 466.129C278.741 466.129 278.995 466.129 279.172 466.129C279.311 466.129 279.476 466.123 279.666 466.11C279.856 466.097 280.04 466.078 280.217 466.053C280.394 466.015 280.515 465.971 280.578 465.92L282.421 466.813ZM270.679 473.71C270.932 473.735 271.224 473.761 271.553 473.786C271.895 473.799 272.231 473.805 272.56 473.805C272.75 473.805 273.098 473.805 273.605 473.805C274.124 473.805 274.732 473.805 275.429 473.805C276.138 473.805 276.867 473.805 277.614 473.805C278.374 473.805 279.096 473.805 279.78 473.805C280.477 473.805 281.072 473.805 281.566 473.805C282.06 473.805 282.377 473.805 282.516 473.805C282.757 473.805 283.067 473.799 283.447 473.786C283.827 473.773 284.137 473.754 284.378 473.729V476.18C284.251 476.167 284.074 476.155 283.846 476.142C283.631 476.142 283.403 476.136 283.162 476.123C282.934 476.123 282.731 476.123 282.554 476.123C282.402 476.123 282.073 476.123 281.566 476.123C281.059 476.123 280.458 476.123 279.761 476.123C279.064 476.123 278.33 476.123 277.557 476.123C276.797 476.123 276.062 476.123 275.353 476.123C274.656 476.123 274.055 476.123 273.548 476.123C273.041 476.123 272.712 476.123 272.56 476.123C272.231 476.123 271.927 476.123 271.648 476.123C271.369 476.136 271.046 476.155 270.679 476.18V473.71ZM290.23 462.975C290.572 463.013 290.946 463.045 291.351 463.07C291.769 463.083 292.136 463.089 292.453 463.089C292.719 463.089 293.074 463.089 293.517 463.089C293.96 463.089 294.448 463.089 294.98 463.089C295.512 463.089 296.05 463.089 296.595 463.089C297.152 463.089 297.678 463.089 298.172 463.089C298.679 463.089 299.122 463.089 299.502 463.089C299.882 463.089 300.154 463.089 300.319 463.089C300.699 463.089 301.079 463.076 301.459 463.051C301.839 463.026 302.162 463 302.428 462.975V465.73C302.162 465.717 301.826 465.705 301.421 465.692C301.016 465.667 300.648 465.654 300.319 465.654C300.154 465.654 299.869 465.654 299.464 465.654C299.071 465.654 298.609 465.654 298.077 465.654C297.545 465.654 296.988 465.654 296.405 465.654C295.835 465.654 295.284 465.654 294.752 465.654C294.22 465.654 293.751 465.654 293.346 465.654C292.941 465.654 292.649 465.654 292.472 465.654C292.105 465.654 291.718 465.66 291.313 465.673C290.908 465.686 290.547 465.705 290.23 465.73V462.975ZM288.634 472.266C289.014 472.291 289.407 472.317 289.812 472.342C290.23 472.367 290.629 472.38 291.009 472.38C291.174 472.38 291.478 472.38 291.921 472.38C292.364 472.38 292.884 472.38 293.479 472.38C294.087 472.38 294.739 472.38 295.436 472.38C296.133 472.38 296.823 472.38 297.507 472.38C298.204 472.38 298.85 472.38 299.445 472.38C300.053 472.38 300.572 472.38 301.003 472.38C301.446 472.38 301.75 472.38 301.915 472.38C302.244 472.38 302.593 472.374 302.96 472.361C303.34 472.336 303.688 472.304 304.005 472.266V475.173C303.676 475.135 303.315 475.11 302.922 475.097C302.529 475.072 302.194 475.059 301.915 475.059C301.75 475.059 301.446 475.059 301.003 475.059C300.572 475.059 300.053 475.059 299.445 475.059C298.85 475.059 298.204 475.059 297.507 475.059C296.823 475.059 296.133 475.059 295.436 475.059C294.739 475.059 294.087 475.059 293.479 475.059C292.884 475.059 292.364 475.059 291.921 475.059C291.478 475.059 291.174 475.059 291.009 475.059C290.629 475.059 290.224 475.072 289.793 475.097C289.375 475.11 288.989 475.135 288.634 475.173V472.266ZM314.531 460.999C314.417 461.24 314.303 461.506 314.189 461.797C314.075 462.088 313.98 462.335 313.904 462.538C313.79 462.855 313.651 463.209 313.486 463.602C313.334 463.995 313.169 464.394 312.992 464.799C312.827 465.192 312.656 465.553 312.479 465.882C312.238 466.363 311.934 466.883 311.567 467.44C311.212 467.985 310.832 468.51 310.427 469.017C310.022 469.511 309.604 469.942 309.173 470.309L306.798 468.865C307.14 468.624 307.463 468.339 307.767 468.01C308.084 467.681 308.381 467.339 308.66 466.984C308.951 466.629 309.217 466.281 309.458 465.939C309.699 465.584 309.908 465.255 310.085 464.951C310.338 464.52 310.554 464.071 310.731 463.602C310.921 463.133 311.073 462.722 311.187 462.367C311.301 462.05 311.39 461.721 311.453 461.379C311.529 461.024 311.573 460.701 311.586 460.41L314.531 460.999ZM311.529 463.925C311.744 463.925 312.061 463.925 312.479 463.925C312.897 463.925 313.385 463.925 313.942 463.925C314.499 463.925 315.082 463.925 315.69 463.925C316.311 463.925 316.925 463.925 317.533 463.925C318.154 463.925 318.73 463.925 319.262 463.925C319.807 463.925 320.275 463.925 320.668 463.925C321.073 463.925 321.371 463.925 321.561 463.925C321.814 463.925 322.131 463.919 322.511 463.906C322.891 463.881 323.233 463.843 323.537 463.792V466.395C323.182 466.357 322.815 466.338 322.435 466.338C322.068 466.325 321.776 466.319 321.561 466.319C321.346 466.319 320.985 466.319 320.478 466.319C319.971 466.319 319.382 466.319 318.711 466.319C318.04 466.319 317.33 466.319 316.583 466.319C315.848 466.319 315.133 466.319 314.436 466.319C313.739 466.319 313.119 466.319 312.574 466.319C312.029 466.319 311.611 466.319 311.32 466.319L311.529 463.925ZM318.939 465.293C318.914 466.699 318.768 467.991 318.502 469.169C318.236 470.334 317.856 471.392 317.362 472.342C316.881 473.292 316.285 474.153 315.576 474.926C314.867 475.686 314.056 476.351 313.144 476.921L310.579 475.192C310.921 475.053 311.25 474.894 311.567 474.717C311.884 474.527 312.156 474.337 312.384 474.147C312.929 473.729 313.429 473.254 313.885 472.722C314.354 472.177 314.765 471.55 315.12 470.841C315.487 470.119 315.772 469.302 315.975 468.39C316.19 467.478 316.304 466.446 316.317 465.293H318.939ZM326.748 467.079C326.976 467.092 327.267 467.111 327.622 467.136C327.977 467.149 328.344 467.161 328.724 467.174C329.117 467.187 329.478 467.193 329.807 467.193C330.124 467.193 330.516 467.193 330.985 467.193C331.454 467.193 331.96 467.193 332.505 467.193C333.062 467.193 333.632 467.193 334.215 467.193C334.81 467.193 335.399 467.193 335.982 467.193C336.565 467.193 337.116 467.193 337.635 467.193C338.154 467.193 338.617 467.193 339.022 467.193C339.44 467.193 339.769 467.193 340.01 467.193C340.453 467.193 340.871 467.18 341.264 467.155C341.657 467.117 341.98 467.092 342.233 467.079V470.062C342.018 470.049 341.695 470.03 341.264 470.005C340.833 469.98 340.415 469.967 340.01 469.967C339.769 469.967 339.44 469.967 339.022 469.967C338.604 469.967 338.135 469.967 337.616 469.967C337.097 469.967 336.546 469.967 335.963 469.967C335.393 469.967 334.81 469.967 334.215 469.967C333.62 469.967 333.043 469.967 332.486 469.967C331.941 469.967 331.435 469.967 330.966 469.967C330.51 469.967 330.124 469.967 329.807 469.967C329.262 469.967 328.705 469.98 328.135 470.005C327.565 470.018 327.103 470.037 326.748 470.062V467.079ZM349.5 460.828C349.804 461.005 350.152 461.214 350.545 461.455C350.938 461.696 351.337 461.943 351.742 462.196C352.16 462.449 352.546 462.696 352.901 462.937C353.268 463.165 353.579 463.368 353.832 463.545L352.407 465.654C352.154 465.464 351.843 465.249 351.476 465.008C351.109 464.767 350.729 464.52 350.336 464.267C349.943 464.014 349.551 463.773 349.158 463.545C348.778 463.304 348.43 463.095 348.113 462.918L349.5 460.828ZM345.966 474.318C346.688 474.191 347.41 474.039 348.132 473.862C348.867 473.672 349.595 473.438 350.317 473.159C351.052 472.88 351.761 472.557 352.445 472.19C353.522 471.582 354.522 470.898 355.447 470.138C356.384 469.378 357.22 468.567 357.955 467.706C358.702 466.845 359.329 465.964 359.836 465.065L361.299 467.649C360.412 468.966 359.317 470.208 358.012 471.373C356.72 472.538 355.295 473.571 353.737 474.47C353.091 474.837 352.382 475.179 351.609 475.496C350.849 475.813 350.095 476.085 349.348 476.313C348.613 476.554 347.961 476.725 347.391 476.826L345.966 474.318ZM346.574 465.16C346.891 465.337 347.245 465.546 347.638 465.787C348.043 466.015 348.449 466.256 348.854 466.509C349.259 466.762 349.639 467.003 349.994 467.231C350.361 467.459 350.665 467.662 350.906 467.839L349.519 469.967C349.24 469.777 348.924 469.568 348.569 469.34C348.214 469.099 347.834 468.852 347.429 468.599C347.036 468.333 346.644 468.086 346.251 467.858C345.871 467.63 345.516 467.434 345.187 467.269L346.574 465.16ZM366.676 465.141C366.841 465.154 367.062 465.173 367.341 465.198C367.62 465.211 367.911 465.223 368.215 465.236C368.519 465.236 368.791 465.236 369.032 465.236C369.336 465.236 369.729 465.236 370.21 465.236C370.691 465.236 371.211 465.236 371.768 465.236C372.338 465.236 372.902 465.236 373.459 465.236C374.016 465.236 374.536 465.236 375.017 465.236C375.498 465.236 375.897 465.236 376.214 465.236C376.442 465.236 376.702 465.236 376.993 465.236C377.297 465.223 377.525 465.211 377.677 465.198C377.664 465.325 377.658 465.521 377.658 465.787C377.658 466.04 377.658 466.268 377.658 466.471C377.658 466.61 377.658 466.902 377.658 467.345C377.658 467.776 377.658 468.308 377.658 468.941C377.658 469.574 377.658 470.246 377.658 470.955C377.658 471.664 377.658 472.361 377.658 473.045C377.658 473.716 377.658 474.318 377.658 474.85C377.658 475.369 377.658 475.756 377.658 476.009C377.658 476.161 377.658 476.37 377.658 476.636C377.671 476.915 377.677 477.136 377.677 477.301H375.283C375.296 477.136 375.302 476.908 375.302 476.617C375.302 476.326 375.302 476.085 375.302 475.895C375.302 475.566 375.302 475.148 375.302 474.641C375.302 474.122 375.302 473.564 375.302 472.969C375.302 472.361 375.302 471.753 375.302 471.145C375.302 470.524 375.302 469.948 375.302 469.416C375.302 468.884 375.302 468.441 375.302 468.086C375.302 467.719 375.302 467.478 375.302 467.364C375.188 467.364 374.985 467.364 374.694 467.364C374.403 467.364 374.067 467.364 373.687 467.364C373.307 467.364 372.895 467.364 372.452 467.364C372.021 467.364 371.591 467.364 371.16 467.364C370.742 467.364 370.343 467.364 369.963 467.364C369.596 467.364 369.285 467.364 369.032 467.364C368.791 467.364 368.519 467.37 368.215 467.383C367.911 467.383 367.613 467.389 367.322 467.402C367.043 467.415 366.828 467.427 366.676 467.44V465.141ZM367.17 469.606C367.423 469.619 367.74 469.631 368.12 469.644C368.513 469.657 368.886 469.663 369.241 469.663C369.393 469.663 369.659 469.663 370.039 469.663C370.432 469.663 370.881 469.663 371.388 469.663C371.907 469.663 372.439 469.663 372.984 469.663C373.529 469.663 374.042 469.663 374.523 469.663C375.017 469.663 375.435 469.663 375.777 469.663C376.119 469.663 376.328 469.663 376.404 469.663V471.81C376.315 471.81 376.1 471.81 375.758 471.81C375.429 471.81 375.017 471.81 374.523 471.81C374.042 471.81 373.529 471.81 372.984 471.81C372.439 471.81 371.907 471.81 371.388 471.81C370.881 471.81 370.438 471.81 370.058 471.81C369.678 471.81 369.406 471.81 369.241 471.81C368.886 471.81 368.506 471.816 368.101 471.829C367.708 471.829 367.398 471.835 367.17 471.848V469.606ZM366.467 474.261C366.632 474.274 366.86 474.293 367.151 474.318C367.442 474.331 367.765 474.337 368.12 474.337C368.31 474.337 368.627 474.337 369.07 474.337C369.513 474.337 370.02 474.337 370.59 474.337C371.173 474.337 371.774 474.337 372.395 474.337C373.016 474.337 373.605 474.337 374.162 474.337C374.732 474.337 375.22 474.337 375.625 474.337C376.03 474.337 376.296 474.337 376.423 474.337V476.541C376.258 476.541 375.967 476.541 375.549 476.541C375.131 476.541 374.637 476.541 374.067 476.541C373.51 476.541 372.927 476.541 372.319 476.541C371.711 476.541 371.122 476.541 370.552 476.541C369.982 476.541 369.475 476.541 369.032 476.541C368.601 476.541 368.291 476.541 368.101 476.541C367.835 476.541 367.537 476.547 367.208 476.56C366.879 476.573 366.632 476.585 366.467 476.598V474.261ZM386.208 461.436C386.537 461.664 386.924 461.943 387.367 462.272C387.81 462.601 388.266 462.962 388.735 463.355C389.216 463.735 389.666 464.109 390.084 464.476C390.502 464.843 390.844 465.173 391.11 465.464L389.172 467.44C388.931 467.174 388.615 466.857 388.222 466.49C387.829 466.123 387.405 465.743 386.949 465.35C386.493 464.957 386.043 464.584 385.6 464.229C385.157 463.874 384.764 463.577 384.422 463.336L386.208 461.436ZM383.833 474.09C384.821 473.951 385.752 473.754 386.626 473.501C387.5 473.248 388.311 472.956 389.058 472.627C389.805 472.298 390.489 471.956 391.11 471.601C392.187 470.955 393.175 470.22 394.074 469.397C394.973 468.574 395.759 467.719 396.43 466.832C397.101 465.933 397.633 465.059 398.026 464.21L399.508 466.889C399.027 467.738 398.431 468.586 397.722 469.435C397.025 470.284 396.234 471.094 395.347 471.867C394.46 472.627 393.504 473.311 392.478 473.919C391.832 474.312 391.135 474.685 390.388 475.04C389.641 475.382 388.849 475.686 388.013 475.952C387.19 476.231 386.328 476.446 385.429 476.598L383.833 474.09Z" fill="#484848"/>
<path d="M11.715 322.539H14.475C14.4484 323.099 14.4017 323.819 14.335 324.699C14.2684 325.579 14.1417 326.559 13.955 327.639C13.7817 328.706 13.515 329.826 13.155 330.999C12.795 332.172 12.3017 333.346 11.675 334.519C11.0617 335.679 10.275 336.792 9.31502 337.859C8.36835 338.912 7.21502 339.852 5.85502 340.679C5.64169 340.372 5.34835 340.046 4.97502 339.699C4.61502 339.352 4.23502 339.039 3.83502 338.759C5.16835 338.012 6.28835 337.159 7.19502 336.199C8.10169 335.239 8.84169 334.232 9.41502 333.179C9.98835 332.112 10.4284 331.046 10.735 329.979C11.0417 328.899 11.2617 327.879 11.395 326.919C11.5284 325.959 11.6084 325.099 11.635 324.339C11.6617 323.579 11.6884 322.979 11.715 322.539ZM14.375 323.079C14.3884 323.332 14.415 323.732 14.455 324.279C14.495 324.826 14.575 325.479 14.695 326.239C14.815 326.999 14.995 327.826 15.235 328.719C15.4884 329.599 15.8217 330.506 16.235 331.439C16.6484 332.372 17.1617 333.286 17.775 334.179C18.3884 335.072 19.1284 335.899 19.995 336.659C20.875 337.419 21.9017 338.079 23.075 338.639C22.6884 338.919 22.3284 339.246 21.995 339.619C21.675 339.992 21.415 340.346 21.215 340.679C19.9884 340.066 18.915 339.339 17.995 338.499C17.0884 337.646 16.3084 336.726 15.655 335.739C15.015 334.739 14.4817 333.726 14.055 332.699C13.6284 331.672 13.2817 330.666 13.015 329.679C12.7617 328.679 12.5684 327.752 12.435 326.899C12.3017 326.046 12.2084 325.306 12.155 324.679C12.115 324.052 12.0817 323.599 12.055 323.319L14.375 323.079ZM30.655 334.279H36.115V335.979H30.655V334.279ZM30.515 331.299H37.255V338.999H30.515V337.219H34.995V333.079H30.515V331.299ZM29.515 331.299H31.695V340.019H29.515V331.299ZM26.175 325.619H31.175V327.239H26.175V325.619ZM35.455 325.619H40.495V327.239H35.455V325.619ZM39.515 322.839H41.935V338.019C41.935 338.659 41.8617 339.166 41.715 339.539C41.5684 339.912 41.295 340.199 40.895 340.399C40.4817 340.599 39.975 340.726 39.375 340.779C38.7884 340.832 38.0617 340.859 37.195 340.859C37.1684 340.619 37.115 340.352 37.035 340.059C36.955 339.766 36.8617 339.466 36.755 339.159C36.6484 338.866 36.535 338.612 36.415 338.399C36.775 338.426 37.1284 338.446 37.475 338.459C37.835 338.459 38.155 338.459 38.435 338.459C38.7284 338.446 38.9284 338.439 39.035 338.439C39.2217 338.439 39.3484 338.406 39.415 338.339C39.4817 338.272 39.515 338.152 39.515 337.979V322.839ZM26.355 322.839H32.695V330.099H26.355V328.379H30.435V324.579H26.355V322.839ZM40.795 322.839V324.579H36.315V328.419H40.795V330.139H34.035V322.839H40.795ZM24.975 322.839H27.355V340.859H24.975V322.839ZM48.655 331.559H58.195V333.239H48.655V331.559ZM48.375 334.299H58.415V336.019H48.375V334.299ZM52.155 332.379H54.295V334.539C54.295 335.006 54.2284 335.486 54.095 335.979C53.975 336.472 53.7417 336.959 53.395 337.439C53.0617 337.906 52.575 338.352 51.935 338.779C51.295 339.206 50.455 339.586 49.415 339.919C49.2684 339.706 49.055 339.446 48.775 339.139C48.5084 338.832 48.2484 338.579 47.995 338.379C48.9017 338.139 49.6284 337.859 50.175 337.539C50.735 337.206 51.155 336.866 51.435 336.519C51.7284 336.159 51.9217 335.806 52.015 335.459C52.1084 335.112 52.155 334.786 52.155 334.479V332.379ZM54.095 335.059C54.455 335.846 55.0084 336.519 55.755 337.079C56.5017 337.626 57.4217 338.006 58.515 338.219C58.3017 338.419 58.0617 338.692 57.795 339.039C57.5417 339.372 57.3484 339.672 57.215 339.939C55.9884 339.592 54.975 339.039 54.175 338.279C53.375 337.506 52.7684 336.559 52.355 335.439L54.095 335.059ZM49.555 330.259L51.395 329.739C51.6084 330.032 51.8084 330.359 51.995 330.719C52.1817 331.079 52.3084 331.406 52.375 331.699L50.415 332.259C50.3484 331.979 50.235 331.652 50.075 331.279C49.9284 330.906 49.755 330.566 49.555 330.259ZM55.115 329.719L57.315 330.319C57.035 330.706 56.7684 331.086 56.515 331.459C56.275 331.819 56.055 332.139 55.855 332.419L54.275 331.879C54.435 331.559 54.595 331.199 54.755 330.799C54.915 330.386 55.035 330.026 55.115 329.719ZM46.175 325.459H51.195V326.959H46.175V325.459ZM55.395 325.459H60.435V326.959H55.395V325.459ZM59.555 322.839H61.915V338.319C61.915 338.866 61.855 339.306 61.735 339.639C61.6284 339.972 61.415 340.232 61.095 340.419C60.775 340.606 60.3884 340.726 59.935 340.779C59.4817 340.832 58.9417 340.859 58.315 340.859C58.2884 340.539 58.2084 340.159 58.075 339.719C57.955 339.292 57.8217 338.926 57.675 338.619C57.995 338.632 58.3084 338.646 58.615 338.659C58.935 338.659 59.1417 338.652 59.235 338.639C59.3684 338.639 59.455 338.612 59.495 338.559C59.535 338.506 59.555 338.419 59.555 338.299V322.839ZM46.395 322.839H52.715V329.619H46.395V327.979H50.475V324.499H46.395V322.839ZM60.795 322.839V324.499H56.295V328.039H60.795V329.679H54.015V322.839H60.795ZM44.975 322.839H47.315V340.859H44.975V322.839ZM74.715 332.919H77.095V340.859H74.715V332.919ZM69.355 332.179C70.355 332.152 71.515 332.126 72.835 332.099C74.1684 332.059 75.5684 332.012 77.035 331.959C78.515 331.906 79.9817 331.852 81.435 331.799L81.375 333.859C79.9884 333.952 78.595 334.032 77.195 334.099C75.795 334.166 74.455 334.232 73.175 334.299C71.895 334.352 70.735 334.406 69.695 334.459L69.355 332.179ZM80.275 322.479L81.855 324.399C81.0684 324.612 80.215 324.806 79.295 324.979C78.375 325.139 77.4217 325.292 76.435 325.439C75.4617 325.572 74.4817 325.692 73.495 325.799C72.5217 325.906 71.575 325.992 70.655 326.059C70.6017 325.779 70.5084 325.452 70.375 325.079C70.255 324.692 70.135 324.379 70.015 324.139C70.9084 324.059 71.8284 323.966 72.775 323.859C73.7217 323.739 74.6417 323.606 75.535 323.459C76.4417 323.312 77.295 323.159 78.095 322.999C78.9084 322.826 79.635 322.652 80.275 322.479ZM78.235 326.119L80.455 327.119C79.8284 327.906 79.1484 328.706 78.415 329.519C77.6817 330.319 76.9417 331.086 76.195 331.819C75.4617 332.539 74.7684 333.179 74.115 333.739L72.335 332.779C72.8284 332.352 73.3417 331.872 73.875 331.339C74.4217 330.792 74.955 330.226 75.475 329.639C75.995 329.039 76.4884 328.439 76.955 327.839C77.435 327.239 77.8617 326.666 78.235 326.119ZM74.555 324.339L76.775 325.459C76.4284 325.899 76.0684 326.359 75.695 326.839C75.3217 327.306 74.955 327.759 74.595 328.199C74.2484 328.626 73.915 328.999 73.595 329.319L71.975 328.399C72.2684 328.026 72.575 327.606 72.895 327.139C73.2284 326.672 73.535 326.192 73.815 325.699C74.1084 325.206 74.355 324.752 74.555 324.339ZM78.075 336.019L80.015 335.099C80.3484 335.486 80.6817 335.906 81.015 336.359C81.3617 336.812 81.675 337.266 81.955 337.719C82.2484 338.159 82.475 338.552 82.635 338.899L80.535 339.959C80.4017 339.599 80.195 339.192 79.915 338.739C79.6484 338.272 79.355 337.806 79.035 337.339C78.715 336.859 78.395 336.419 78.075 336.019ZM78.515 330.399L80.515 329.599C80.875 330.066 81.2284 330.579 81.575 331.139C81.935 331.699 82.2617 332.252 82.555 332.799C82.8484 333.332 83.0684 333.819 83.215 334.259L81.055 335.179C80.935 334.739 80.735 334.246 80.455 333.699C80.1884 333.152 79.8817 332.592 79.535 332.019C79.2017 331.432 78.8617 330.892 78.515 330.399ZM69.995 328.679L71.375 327.119C71.8817 327.399 72.4084 327.726 72.955 328.099C73.5017 328.472 74.0217 328.846 74.515 329.219C75.0217 329.592 75.4284 329.939 75.735 330.259L74.235 332.019C73.955 331.699 73.575 331.339 73.095 330.939C72.615 330.539 72.1017 330.146 71.555 329.759C71.0217 329.359 70.5017 328.999 69.995 328.679ZM67.935 322.139L70.135 322.819C69.735 323.952 69.2484 325.092 68.675 326.239C68.115 327.386 67.5017 328.472 66.835 329.499C66.1684 330.526 65.4817 331.426 64.775 332.199C64.7084 331.999 64.6017 331.739 64.455 331.419C64.3084 331.099 64.1484 330.779 63.975 330.459C63.815 330.139 63.6684 329.886 63.535 329.699C64.1217 329.086 64.6884 328.372 65.235 327.559C65.7817 326.746 66.2817 325.879 66.735 324.959C67.2017 324.026 67.6017 323.086 67.935 322.139ZM66.255 327.699L68.555 325.399L68.575 325.419V340.859H66.255V327.699ZM71.655 335.199L73.875 335.879C73.5017 336.612 73.055 337.359 72.535 338.119C72.0284 338.879 71.5217 339.539 71.015 340.099C70.775 339.899 70.4817 339.679 70.135 339.439C69.7884 339.212 69.4884 339.032 69.235 338.899C69.5417 338.566 69.8484 338.192 70.155 337.779C70.475 337.352 70.7617 336.912 71.015 336.459C71.2817 336.006 71.495 335.586 71.655 335.199Z" fill="#484848"/>
<path d="M5.24929 158.268V148.714H7.66477V158.268H5.24929ZM1.68004 154.699V152.283H11.234V154.699H1.68004ZM18.1431 159.233C17.275 159.229 16.5036 158.997 15.8288 158.538C15.1586 158.079 14.6323 157.445 14.25 156.635C13.8677 155.826 13.6765 154.892 13.6765 153.835C13.6765 152.783 13.8767 151.858 14.277 151.062C14.6773 150.266 15.2171 149.643 15.8963 149.193C16.58 148.743 17.3447 148.519 18.1903 148.519C18.7481 148.519 19.2541 148.617 19.7085 148.815C20.1673 149.013 20.5631 149.294 20.896 149.659C21.2333 150.023 21.4987 150.453 21.6921 150.947H22.5558L23.2642 153.808L24.5327 159.017H22.3196L21.1321 153.808C21.0646 153.466 20.9702 153.12 20.8487 152.769C20.7273 152.414 20.5676 152.088 20.3697 151.791C20.1763 151.494 19.9379 151.256 19.6545 151.076C19.3711 150.896 19.0382 150.806 18.6559 150.806C18.2016 150.806 17.8103 150.936 17.4819 151.197C17.1535 151.454 16.9016 151.807 16.7262 152.256C16.5508 152.706 16.4631 153.226 16.4631 153.815C16.4631 154.409 16.5508 154.937 16.7262 155.401C16.9061 155.864 17.1535 156.231 17.4684 156.5C17.7833 156.766 18.1499 156.898 18.5682 156.898C18.928 156.898 19.2519 156.804 19.5398 156.615C19.8277 156.422 20.0773 156.172 20.2887 155.866C20.5046 155.56 20.6823 155.232 20.8217 154.881C20.9657 154.526 21.0691 154.186 21.1321 153.862L22.2184 148.653H24.3977L23.2642 153.862L22.5558 156.656H21.7259C21.5369 157.146 21.2828 157.587 20.9634 157.978C20.6441 158.365 20.2505 158.671 19.7827 158.896C19.3149 159.121 18.7683 159.233 18.1431 159.233ZM36.519 146.002C36.3924 146.965 36.2277 147.991 36.025 149.08C35.8224 150.169 35.55 151.271 35.208 152.386C34.8407 153.665 34.41 154.767 33.916 155.692C33.422 156.617 32.8774 157.332 32.282 157.839C31.6994 158.333 31.0597 158.58 30.363 158.58C29.6664 158.58 29.0204 158.346 28.425 157.877C27.8424 157.396 27.3737 156.737 27.019 155.901C26.677 155.065 26.506 154.115 26.506 153.051C26.506 151.949 26.7277 150.91 27.171 149.935C27.6144 148.96 28.2287 148.098 29.014 147.351C29.812 146.591 30.7367 145.996 31.788 145.565C32.852 145.134 33.9984 144.919 35.227 144.919C36.405 144.919 37.4627 145.109 38.4 145.489C39.35 145.869 40.1607 146.395 40.832 147.066C41.5034 147.737 42.0164 148.523 42.371 149.422C42.7257 150.321 42.903 151.29 42.903 152.329C42.903 153.659 42.6307 154.85 42.086 155.901C41.5414 156.952 40.7307 157.82 39.654 158.504C38.59 159.188 37.26 159.657 35.664 159.91L34.239 157.649C34.6064 157.611 34.9294 157.567 35.208 157.516C35.4867 157.465 35.7527 157.408 36.006 157.345C36.614 157.193 37.1777 156.978 37.697 156.699C38.229 156.408 38.6914 156.053 39.084 155.635C39.4767 155.204 39.7807 154.704 39.996 154.134C40.224 153.564 40.338 152.937 40.338 152.253C40.338 151.506 40.224 150.822 39.996 150.201C39.768 149.58 39.4324 149.042 38.989 148.586C38.5457 148.117 38.0074 147.763 37.374 147.522C36.7407 147.269 36.0124 147.142 35.189 147.142C34.1757 147.142 33.2827 147.326 32.51 147.693C31.7374 148.048 31.085 148.51 30.553 149.08C30.021 149.65 29.6157 150.264 29.337 150.923C29.071 151.582 28.938 152.209 28.938 152.804C28.938 153.437 29.014 153.969 29.166 154.4C29.318 154.818 29.5017 155.135 29.717 155.35C29.945 155.553 30.1857 155.654 30.439 155.654C30.705 155.654 30.9647 155.521 31.218 155.255C31.484 154.976 31.7437 154.558 31.997 154.001C32.2504 153.444 32.5037 152.741 32.757 151.892C33.0484 150.98 33.2954 150.005 33.498 148.966C33.7007 147.927 33.8464 146.914 33.935 145.926L36.519 146.002ZM50.541 151.93C51.529 153.792 53.049 155.274 55.101 156.376C57.153 157.478 59.7054 158.2 62.758 158.542C62.5934 158.719 62.416 158.935 62.226 159.188C62.0487 159.454 61.8777 159.726 61.713 160.005C61.5484 160.284 61.409 160.537 61.295 160.765C59.167 160.448 57.286 159.948 55.652 159.264C54.0307 158.593 52.6247 157.712 51.434 156.623C50.2434 155.521 49.23 154.204 48.394 152.671L50.541 151.93ZM46.532 149.859H58.711V152.082H46.532V149.859ZM45.601 145.375H61.903V147.636H45.601V145.375ZM52.536 142.867H54.911V150.866H52.536V142.867ZM57.989 149.859H58.464L58.863 149.764L60.478 150.676C59.908 152.221 59.1417 153.564 58.179 154.704C57.229 155.844 56.127 156.813 54.873 157.611C53.619 158.396 52.251 159.042 50.769 159.549C49.287 160.056 47.7227 160.448 46.076 160.727C46.0127 160.512 45.905 160.265 45.753 159.986C45.6137 159.707 45.4617 159.435 45.297 159.169C45.1324 158.903 44.974 158.688 44.822 158.523C46.418 158.308 47.919 158.004 49.325 157.611C50.731 157.206 52.004 156.68 53.144 156.034C54.2967 155.375 55.2847 154.577 56.108 153.64C56.9314 152.69 57.5584 151.563 57.989 150.258V149.859ZM70.396 148.073H80.903V149.859H70.396V148.073ZM70.016 150.752H81.473V152.595H70.016V150.752ZM72.486 153.355H78.889V154.989H72.486V153.355ZM70.871 146.021L72.6 145.546C72.752 145.888 72.9104 146.274 73.075 146.705C73.2397 147.123 73.3664 147.471 73.455 147.75L71.631 148.339C71.555 148.035 71.441 147.668 71.289 147.237C71.1497 146.794 71.0104 146.388 70.871 146.021ZM74.177 145.698L75.944 145.375C76.058 145.755 76.1594 146.167 76.248 146.61C76.3494 147.041 76.419 147.402 76.457 147.693L74.576 148.111C74.5507 147.807 74.5 147.427 74.424 146.971C74.348 146.502 74.2657 146.078 74.177 145.698ZM79.649 142.962L80.922 144.634C80.2127 144.786 79.4274 144.919 78.566 145.033C77.7174 145.134 76.837 145.223 75.925 145.299C75.013 145.375 74.0947 145.438 73.17 145.489C72.258 145.527 71.3777 145.552 70.529 145.565C70.5037 145.324 70.4404 145.039 70.339 144.71C70.2377 144.381 70.1364 144.102 70.035 143.874C70.871 143.836 71.726 143.798 72.6 143.76C73.4867 143.709 74.3544 143.646 75.203 143.57C76.0517 143.494 76.856 143.405 77.616 143.304C78.3887 143.203 79.0664 143.089 79.649 142.962ZM74.367 154.609C74.7977 155.356 75.374 156.015 76.096 156.585C76.8307 157.155 77.6857 157.636 78.661 158.029C79.649 158.409 80.7384 158.694 81.929 158.884C81.6884 159.099 81.4414 159.391 81.188 159.758C80.9347 160.138 80.732 160.467 80.58 160.746C78.6927 160.353 77.0777 159.688 75.735 158.751C74.3924 157.814 73.322 156.617 72.524 155.16L74.367 154.609ZM78.566 145.033L80.656 145.641C80.314 146.211 79.953 146.787 79.573 147.37C79.193 147.953 78.851 148.44 78.547 148.833L76.951 148.282C77.1537 147.978 77.35 147.636 77.54 147.256C77.7427 146.876 77.9327 146.49 78.11 146.097C78.2874 145.704 78.4394 145.35 78.566 145.033ZM78.433 153.355H78.851L79.231 153.298L80.466 153.792C80.0987 155.147 79.5477 156.287 78.813 157.212C78.091 158.137 77.236 158.878 76.248 159.435C75.26 160.005 74.158 160.448 72.942 160.765C72.866 160.6 72.7584 160.41 72.619 160.195C72.4797 159.98 72.3277 159.764 72.163 159.549C71.9984 159.346 71.8527 159.188 71.726 159.074C72.866 158.833 73.8857 158.491 74.785 158.048C75.6844 157.605 76.4444 157.028 77.065 156.319C77.6984 155.597 78.1544 154.704 78.433 153.64V153.355ZM72.676 149.213H74.861C74.8104 150.011 74.728 150.834 74.614 151.683C74.5127 152.532 74.3607 153.374 74.158 154.21C73.9554 155.046 73.6704 155.857 73.303 156.642C72.9484 157.427 72.486 158.162 71.916 158.846C71.3587 159.53 70.6684 160.138 69.845 160.67C69.693 160.404 69.4777 160.113 69.199 159.796C68.9204 159.492 68.6417 159.239 68.363 159.036C69.1104 158.58 69.731 158.054 70.225 157.459C70.7317 156.864 71.137 156.23 71.441 155.559C71.745 154.875 71.973 154.172 72.125 153.45C72.2897 152.728 72.41 152.006 72.486 151.284C72.5747 150.562 72.638 149.872 72.676 149.213ZM63.746 153.051C64.506 152.874 65.4117 152.646 66.463 152.367C67.527 152.088 68.5974 151.797 69.674 151.493L69.959 153.564C68.9584 153.855 67.945 154.153 66.919 154.457C65.893 154.748 64.9494 155.021 64.088 155.274L63.746 153.051ZM63.993 146.477H69.807V148.567H63.993V146.477ZM65.988 142.886H68.078V158.314C68.078 158.833 68.021 159.245 67.907 159.549C67.8057 159.866 67.6094 160.113 67.318 160.29C67.0394 160.467 66.6847 160.588 66.254 160.651C65.836 160.714 65.3104 160.74 64.677 160.727C64.6517 160.448 64.582 160.1 64.468 159.682C64.354 159.277 64.2274 158.922 64.088 158.618C64.4427 158.631 64.7657 158.643 65.057 158.656C65.361 158.656 65.57 158.65 65.684 158.637C65.798 158.637 65.874 158.618 65.912 158.58C65.9627 158.529 65.988 158.441 65.988 158.314V142.886Z" fill="#484848"/>
<path d="M262.402 77.1761H285.356M273.879 77.1761V84.0621M287.882 51.9311H310.374M294.538 46.1881L300.277 51.9271M294.538 60.1541V84.0621M303.72 60.1541V84.0621M282.074 71.3801C283.362 69.2937 284.097 66.9134 284.209 64.4641C284.209 60.3321 281.509 56.8521 278.264 56.8521C275.019 56.8521 275.027 58.2521 273.942 58.2521C272.857 58.2521 272.861 56.8521 269.617 56.8521C266.373 56.8521 263.672 60.3201 263.672 64.4641C263.787 66.9364 264.535 69.3376 265.846 71.4371M273.88 58.2471V56.8541C273.759 56.0043 273.812 55.1389 274.035 54.3101C274.258 53.4813 274.646 52.7061 275.177 52.0314C275.707 51.3567 276.369 50.7963 277.121 50.3842C277.874 49.972 278.703 49.7165 279.557 49.6331M308.572 90.1641C308.496 90.3925 308.35 90.5912 308.155 90.732C307.959 90.8729 307.725 90.9488 307.484 90.9491H265.524C265.283 90.9488 265.049 90.8729 264.853 90.732C264.658 90.5912 264.512 90.3925 264.436 90.1641L262.902 85.5731C262.845 85.4005 262.829 85.2167 262.857 85.037C262.884 84.8572 262.954 84.6866 263.061 84.5391C263.167 84.3917 263.307 84.2716 263.469 84.1889C263.631 84.1061 263.81 84.063 263.992 84.0631H309.013C309.195 84.063 309.374 84.1061 309.536 84.1889C309.698 84.2716 309.838 84.3917 309.944 84.5391C310.051 84.6866 310.121 84.8572 310.148 85.037C310.176 85.2167 310.16 85.4005 310.103 85.5731L308.572 90.1641ZM287.652 49.6311C287.652 51.901 288.325 54.1199 289.586 56.0073C290.847 57.8947 292.64 59.3658 294.737 60.2344C296.834 61.1031 299.142 61.3304 301.368 60.8875C303.594 60.4447 305.639 59.3516 307.244 57.7465C308.85 56.1414 309.943 54.0964 310.385 51.8701C310.828 49.6438 310.601 47.3361 309.732 45.239C308.864 43.1418 307.393 41.3494 305.505 40.0883C303.618 38.8272 301.399 38.1541 299.129 38.1541C296.085 38.1541 293.166 39.3632 291.014 41.5156C288.861 43.6679 287.652 46.5872 287.652 49.6311Z" stroke="#92BD39" stroke-width="2" stroke-linecap="round" stroke-linejoin="round"/>
<path d="M115.666 165.682L109.572 174.412C109.303 174.94 109.175 175.527 109.198 176.119C109.221 176.71 109.395 177.286 109.704 177.791C110.013 178.296 110.447 178.713 110.963 179.002C111.479 179.292 112.061 179.444 112.653 179.445H149.492C150.083 179.45 150.664 179.298 151.177 179.004C151.69 178.711 152.116 178.287 152.412 177.776C152.708 177.264 152.862 176.683 152.861 176.093C152.859 175.502 152.701 174.922 152.402 174.412L146.483 165.682M115.666 165.682H146.483M115.666 165.682V148.564C115.666 147.656 116.027 146.785 116.669 146.143C117.311 145.501 118.182 145.14 119.09 145.14H127.795M146.483 165.682V160.282M152.538 128.44H142.938V136.591H134.79V146.191H142.941V154.342H152.541V146.19H160.692V136.59H152.538V128.44Z" stroke="#E55753" stroke-width="2" stroke-linecap="round" stroke-linejoin="round"/>
<path d="M464.399 178.17H411.604M446.035 155.22L441.382 156.889C440.975 157.025 440.599 157.239 440.274 157.52C439.95 157.801 439.684 158.144 439.493 158.527C439.105 159.302 439.041 160.2 439.315 161.022C439.451 161.429 439.665 161.805 439.946 162.13C440.227 162.454 440.57 162.72 440.953 162.911C441.729 163.299 442.626 163.363 443.448 163.089L448.213 161.384C449.584 160.927 450.777 160.05 451.622 158.877C452.466 157.705 452.921 156.296 452.921 154.851V152.924C452.921 151.098 452.196 149.346 450.904 148.055C449.613 146.763 447.861 146.038 446.035 146.038H438.004C436.579 146.038 435.173 146.37 433.898 147.008C432.623 147.645 431.514 148.571 430.659 149.711L429.97 150.629M423.081 166.697H415.047C414.595 166.697 414.147 166.786 413.729 166.959C413.312 167.132 412.932 167.386 412.612 167.705C412.293 168.025 412.039 168.405 411.866 168.822C411.693 169.24 411.604 169.688 411.604 170.14C411.604 170.592 411.693 171.04 411.866 171.458C412.039 171.875 412.293 172.255 412.612 172.575C412.932 172.894 413.312 173.148 413.729 173.321C414.147 173.494 414.595 173.583 415.047 173.583H434.558M434.558 173.583H446.035C446.948 173.583 447.825 173.22 448.471 172.575C449.116 171.929 449.479 171.053 449.479 170.14C449.479 169.227 449.116 168.351 448.471 167.705C447.825 167.06 446.949 166.697 446.036 166.697H436.687L433.804 160.931C432.951 159.211 431.633 157.765 430 156.757C428.367 155.748 426.484 155.218 424.564 155.226H415.047C414.134 155.226 413.258 155.589 412.612 156.234C411.967 156.88 411.604 157.756 411.604 158.669C411.604 159.582 411.967 160.458 412.612 161.104C413.258 161.749 414.134 162.112 415.047 162.112H424.562C425.202 162.109 425.829 162.286 426.374 162.622C426.918 162.957 427.358 163.439 427.642 164.012L431.478 171.683C431.764 172.254 432.204 172.735 432.748 173.07C433.292 173.406 433.919 173.583 434.558 173.583ZM439.149 135.709C439.149 136.844 439.486 137.954 440.116 138.897C440.747 139.841 441.643 140.577 442.692 141.011C443.74 141.445 444.894 141.559 446.008 141.338C447.121 141.116 448.143 140.57 448.946 139.767C449.749 138.964 450.295 137.942 450.517 136.829C450.738 135.715 450.625 134.561 450.19 133.513C449.756 132.464 449.02 131.568 448.076 130.937C447.133 130.307 446.023 129.97 444.888 129.97C443.366 129.97 441.906 130.575 440.83 131.651C439.754 132.727 439.149 134.187 439.149 135.709ZM452.922 167.844C452.922 168.979 453.259 170.089 453.889 171.032C454.52 171.976 455.416 172.712 456.465 173.146C457.513 173.58 458.667 173.694 459.781 173.473C460.894 173.251 461.916 172.705 462.719 171.902C463.522 171.099 464.068 170.077 464.29 168.964C464.511 167.85 464.398 166.696 463.963 165.648C463.529 164.599 462.793 163.703 461.849 163.072C460.906 162.442 459.796 162.105 458.661 162.105C457.139 162.105 455.679 162.71 454.603 163.786C453.527 164.862 452.922 166.322 452.922 167.844Z" stroke="#1EABDA" stroke-width="2" stroke-linecap="round" stroke-linejoin="round"/>
<path d="M114.007 330.762C115.621 332.435 117.706 333.577 119.986 334.036C122.265 334.495 124.629 334.248 126.765 333.33M110.759 359.512V353.773C110.784 351.355 111.763 349.044 113.482 347.342C115.201 345.641 117.522 344.687 119.941 344.687C122.359 344.687 124.68 345.641 126.399 347.342C128.118 349.044 129.097 351.355 129.122 353.773V359.512M143.01 335.396C144.298 335.379 145.568 335.089 146.736 334.545C147.904 334.002 148.943 333.217 149.785 332.242C150.628 333.216 151.667 334.001 152.834 334.544C154.002 335.088 155.271 335.378 156.559 335.396M158.969 359.512L156.816 350.183C156.449 348.594 155.554 347.176 154.277 346.161C153 345.146 151.418 344.594 149.787 344.594C148.156 344.594 146.573 345.146 145.296 346.161C144.019 347.176 143.124 348.594 142.757 350.183L140.604 359.512M145.415 346.068L149.776 352.626L154.137 346.07M113.054 334.262C113.054 335.624 113.458 336.955 114.215 338.088C114.971 339.22 116.047 340.103 117.305 340.624C118.563 341.145 119.948 341.281 121.283 341.016C122.619 340.75 123.846 340.094 124.809 339.131C125.772 338.168 126.428 336.941 126.694 335.605C126.959 334.27 126.823 332.885 126.302 331.627C125.781 330.369 124.898 329.293 123.766 328.537C122.633 327.78 121.302 327.376 119.94 327.376C118.114 327.376 116.362 328.102 115.071 329.393C113.78 330.684 113.054 332.436 113.054 334.262ZM142.895 334.262C142.895 335.624 143.299 336.955 144.055 338.087C144.812 339.22 145.887 340.102 147.145 340.624C148.403 341.145 149.787 341.281 151.123 341.016C152.459 340.751 153.686 340.095 154.649 339.133C155.612 338.17 156.268 336.943 156.534 335.608C156.8 334.272 156.665 332.888 156.144 331.63C155.623 330.371 154.741 329.296 153.61 328.538C152.478 327.781 151.147 327.377 149.785 327.376C148.88 327.376 147.985 327.553 147.149 327.899C146.313 328.245 145.553 328.752 144.913 329.391C144.273 330.031 143.766 330.79 143.42 331.626C143.073 332.462 142.895 333.357 142.895 334.262ZM137.156 311.617V326.045C137.155 326.152 137.185 326.257 137.241 326.348C137.296 326.439 137.377 326.512 137.472 326.56C137.568 326.608 137.675 326.628 137.781 326.618C137.888 326.608 137.989 326.569 138.074 326.504C140.946 324.254 148.429 317.919 148.429 312.961C148.429 306.102 139.562 303.834 137.156 311.617ZM132.565 311.617V326.045C132.567 326.152 132.538 326.258 132.483 326.35C132.427 326.441 132.347 326.516 132.251 326.564C132.155 326.612 132.047 326.632 131.94 326.621C131.833 326.61 131.732 326.57 131.647 326.504C128.775 324.254 121.292 317.919 121.292 312.961C121.295 306.102 130.161 303.834 132.565 311.617Z" stroke="#DE58A9" stroke-width="2" stroke-linecap="round" stroke-linejoin="round"/>
<path d="M425.673 358.939V345.797C423.533 343.814 421.861 341.38 420.779 338.67M447.699 358.94V352.645H450.845C452.514 352.645 454.115 351.982 455.295 350.802C456.475 349.622 457.138 348.021 457.138 346.352V340.06H461.124C461.379 340.06 461.631 339.997 461.857 339.878C462.083 339.759 462.276 339.587 462.421 339.376C462.565 339.165 462.656 338.923 462.686 338.669C462.716 338.415 462.684 338.158 462.592 337.92C458.092 326.257 455.092 315.671 445.313 312.62M428.886 308.215V313.815C428.886 316.11 431.149 317.97 433.94 317.97C436.731 317.97 438.994 316.11 438.994 313.815V308.215M417.942 317.97V331.688M433.94 308.215V331.688M413.305 312.629C413.305 315.576 415.381 317.966 417.942 317.966C420.503 317.966 422.579 315.577 422.579 312.629C422.579 309.681 420.503 307.292 417.942 307.292C415.381 307.292 413.305 309.681 413.305 312.629Z" stroke="#4E88E7" stroke-width="2" stroke-linecap="round" stroke-linejoin="round"/>
<path d="M282.517 412.179C282.133 411.246 281.479 410.449 280.639 409.889C279.8 409.33 278.812 409.033 277.803 409.037C276.553 409.037 275.354 409.534 274.47 410.418C273.587 411.302 273.09 412.501 273.09 413.751V423.178C273.09 423.797 273.212 424.41 273.449 424.982C273.686 425.554 274.033 426.073 274.471 426.511C274.909 426.949 275.428 427.296 276 427.533C276.572 427.769 277.185 427.891 277.804 427.891C278.813 427.895 279.8 427.599 280.639 427.039C281.479 426.48 282.132 425.683 282.517 424.751M299.917 412.181C299.533 411.248 298.879 410.451 298.039 409.891C297.2 409.332 296.212 409.035 295.203 409.039C294.584 409.038 293.971 409.16 293.398 409.396C292.826 409.633 292.306 409.98 291.868 410.418C291.43 410.855 291.082 411.375 290.845 411.947C290.608 412.519 290.485 413.132 290.485 413.751V423.178C290.485 424.428 290.982 425.627 291.866 426.511C292.75 427.394 293.949 427.891 295.199 427.891C296.208 427.895 297.195 427.599 298.035 427.04C298.874 426.48 299.528 425.684 299.913 424.751M261.81 432.457C261.81 433.06 261.928 433.657 262.159 434.215C262.389 434.772 262.727 435.279 263.154 435.705C263.58 436.132 264.086 436.47 264.643 436.701C265.201 436.932 265.798 437.051 266.401 437.051H269.535V443.539C269.537 443.957 269.652 444.367 269.869 444.724C270.086 445.081 270.397 445.372 270.767 445.567C271.137 445.761 271.553 445.85 271.97 445.826C272.388 445.801 272.79 445.663 273.135 445.427L285.26 437.051H306.607C307.825 437.051 308.992 436.567 309.853 435.706C310.714 434.845 311.198 433.678 311.198 432.46V404.029C311.198 402.811 310.714 401.644 309.853 400.783C308.992 399.922 307.825 399.438 306.607 399.438H266.401C265.183 399.438 264.016 399.922 263.155 400.783C262.294 401.644 261.81 402.811 261.81 404.029V432.457Z" stroke="#7F64EA" stroke-width="2" stroke-linecap="round" stroke-linejoin="round"/>
</svg>
