<svg xmlns="http://www.w3.org/2000/svg" width="84" height="108" viewBox="0 0 84 108">
  <g id="グループ_691" data-name="グループ 691" transform="translate(-213 -6717)">
    <g id="グループ_685" data-name="グループ 685">
      <circle id="楕円形_583" data-name="楕円形 583" cx="42" cy="42" r="42" transform="translate(213 6717)" fill="#449d39"/>
      <text id="STEP01" transform="translate(228 6821)" fill="#449d39" font-size="14" font-family="NotoSans-Regular, Noto Sans" letter-spacing="0.1em"><tspan x="0" y="0">STEP01</tspan></text>
    </g>
    <g id="グループ_690" data-name="グループ 690" transform="translate(240.319 6725.465)">
      <path id="パス_141" data-name="パス 141" d="M13.707,54.316,9.181,63.607a3.374,3.374,0,0,1-4.4,1.823,3.321,3.321,0,0,1-1.848-4.451C4.013,58.339,5.962,55.837,6.6,53V42.925l-.566-.013-.063,1.81a3.034,3.034,0,0,1-2.9,3.03A3.023,3.023,0,0,1,0,44.723L1.033,34.4a3.729,3.729,0,0,1,1.333-2.3l6.752-4.488c1.144-.754,2.829-.4,4.074-.679l7.267-1.584,4.991-7.229,1.132-.868V.982c0-.553.83-1.182,1.308-.93L36.426,4.6a2.4,2.4,0,0,1,.792.754c.151.289-.314,1.031-.616,1.182l-8.072,4.3.025,6.588A2.982,2.982,0,0,1,30,21.953L24.243,30.44l-6.085,1.521V44.019L22.181,53.3l.377,9.53a3.432,3.432,0,0,1-2.867,3.722,3.221,3.221,0,0,1-3.81-2.816l-.553-9.065c-.088-1.333-1.194-2.829-1.7-3.96l.1,3.608ZM34.175,5.609l-5.62-3.068V8.677ZM12.336,31.358l10.674-2.515,5.356-7.908c.214-.314.339-1.421-.038-1.446L26.845,19.4l-5.13,7.607-9.543,2.225A1.4,1.4,0,0,0,11.2,30.34c0,.377.679,1.144,1.144,1.031Zm5.029,22.958.4,9.442c.025.478,1.157,1.018,1.609.93s1.27-.83,1.257-1.333l-.415-9.832-4-9.115.025-11.957-3.382.729c-1.949.427-3.42-1.006-3.671-2.98a3.461,3.461,0,0,0-.817,1.546c-.126,7.267-.013,14.17.478,21.449L4.6,62.061c-.277.591.5,1.609,1.044,1.7a1.9,1.9,0,0,0,1.81-.918l4.262-8.8-.2-7.154c.126-.679,2.251-.729,2.552-.05l3.294,7.481ZM4.026,44.937,5.044,35.18l1.433-1.031L6.452,31.66,3.1,33.835,1.926,44.773c-.05.49.717,1.157,1.106,1.094.327-.063.968-.578,1.006-.918Z" transform="translate(0.01 0.005)" fill="#fff"/>
      <path id="パス_142" data-name="パス 142" d="M9.487,11.73a5.911,5.911,0,0,1,7.179,4.287A5.863,5.863,0,1,1,9.487,11.73Zm.717,1.8a3.89,3.89,0,0,0-3.055,4.778,3.932,3.932,0,1,0,3.055-4.79Z" transform="translate(1.325 2.974)" fill="#fff"/>
    </g>
  </g>
</svg>
