<svg xmlns="http://www.w3.org/2000/svg" width="84" height="107" viewBox="0 0 84 107">
  <g id="グループ_693" data-name="グループ 693" transform="translate(-213 -7419)">
    <g id="グループ_688" data-name="グループ 688">
      <ellipse id="楕円形_586" data-name="楕円形 586" cx="42" cy="41.5" rx="42" ry="41.5" transform="translate(213 7419)" fill="#449d39"/>
      <text id="STEP04" transform="translate(228 7522)" fill="#449d39" font-size="14" font-family="NotoSans-Regular, Noto Sans" letter-spacing="0.1em"><tspan x="0" y="0">STEP04</tspan></text>
    </g>
    <g id="レイヤー_1" data-name="レイヤー 1" transform="translate(225.757 7438.13)">
      <g id="グループ_323" data-name="グループ 323">
        <path id="パス_147" data-name="パス 147" d="M48.316,10.4H44.728A11.594,11.594,0,0,0,33.21,0H18.2A11.586,11.586,0,0,0,6.626,11.573v5.471A11.592,11.592,0,0,0,0,27.5v5.463A11.586,11.586,0,0,0,10.677,44.506l-.185,4.106a.861.861,0,0,0,1.293.783l8.308-4.852h6.494a11.573,11.573,0,0,0,9.865-5.532H39.77l8.067,5.415a.855.855,0,0,0,.479.145.881.881,0,0,0,.4-.1.861.861,0,0,0,.455-.759V38.98A11.59,11.59,0,0,0,59.889,27.438v-5.46A11.586,11.586,0,0,0,48.316,10.4ZM8.345,11.573A9.866,9.866,0,0,1,18.2,1.719H33.21a9.866,9.866,0,0,1,9.855,9.855v5.46a9.866,9.866,0,0,1-9.855,9.855H26.484A.86.86,0,0,0,26.05,27L18.906,31.18l.153-3.392a.849.849,0,0,0-.238-.632.862.862,0,0,0-.621-.264,9.866,9.866,0,0,1-9.855-9.855v-5.46ZM26.587,42.822H19.86a.86.86,0,0,0-.434.116l-7.144,4.175.153-3.392a.849.849,0,0,0-.238-.632.862.862,0,0,0-.621-.264A9.866,9.866,0,0,1,1.721,32.97V27.507a9.854,9.854,0,0,1,5.061-8.6,11.592,11.592,0,0,0,10.524,9.67l-.185,4.106a.861.861,0,0,0,1.293.783l8.308-4.852h6.494a11.507,11.507,0,0,0,3.228-.463V32.97a9.866,9.866,0,0,1-9.855,9.855ZM58.171,27.435a9.866,9.866,0,0,1-9.855,9.855.861.861,0,0,0-.859.859V42.1l-6.946-4.662a.863.863,0,0,0-.479-.145H37.319a11.534,11.534,0,0,0,.841-4.326V27.5a11.589,11.589,0,0,0,6.626-10.46V12.118h3.53a9.866,9.866,0,0,1,9.855,9.855v5.46Z" fill="#fff"/>
        <rect id="長方形_1887" data-name="長方形 1887" width="24.405" height="1.719" transform="translate(13.504 6.822)" fill="#fff"/>
        <rect id="長方形_1888" data-name="長方形 1888" width="16.272" height="1.719" transform="translate(21.637 12.784)" fill="#fff"/>
        <rect id="長方形_1889" data-name="長方形 1889" width="4.96" height="1.719" transform="translate(13.504 12.784)" fill="#fff"/>
        <rect id="長方形_1890" data-name="長方形 1890" width="16.002" height="1.719" transform="translate(13.504 18.747)" fill="#fff"/>
        <rect id="長方形_1891" data-name="長方形 1891" width="5.23" height="1.719" transform="translate(32.679 18.747)" fill="#fff"/>
      </g>
    </g>
  </g>
</svg>
