<svg xmlns="http://www.w3.org/2000/svg" width="289.175" height="61.064" viewBox="0 0 289.175 61.064">
  <g id="グループ_676" data-name="グループ 676" transform="translate(-711.163 -98.468)">
    <g id="e1542_1" transform="translate(691.163 91.428)">
      <path id="パス_131" data-name="パス 131" d="M309.09,35.374c.311-.021.433-9.457-12.32-17.027-8.42-5.054-24.564-7.86-46.819-9.424-22.325-1.561-50.76-1.879-85.364-1.883s-63.04.323-85.364,1.883c-22.255,1.564-38.4,4.37-46.82,9.424-12.75,7.57-12.63,17.005-12.32,17.027-.31.023-.432,9.456,12.32,17.027,8.42,5.055,24.564,7.861,46.82,9.424,9.317.651,19.7,1.086,31.152,1.372A26.073,26.073,0,0,0,121.418,68.1c1.057-.678,1.814-2.966,2.245-4.646,12.523.188,26.16.248,40.924.25,34.6,0,63.039-.323,85.363-1.884,22.255-1.564,38.4-4.369,46.82-9.424C309.522,44.831,309.4,35.4,309.09,35.374Z" transform="translate(0 0)" fill="#449d39"/>
    </g>
    <text id="心と体を育てる_専門的なサポート" data-name="心と体を育てる、専門的なサポート" transform="translate(746.25 134.532)" fill="#fff" font-size="16" font-family="YuGothicUI-Bold, Yu Gothic UI" font-weight="700"><tspan x="0" y="0">心と体を育てる、専門的なサポート</tspan></text>
  </g>
</svg>
