<svg xmlns="http://www.w3.org/2000/svg" width="84" height="108" viewBox="0 0 84 108">
  <g id="グループ_694" data-name="グループ 694" transform="translate(-213 -7636)">
    <g id="グループ_689" data-name="グループ 689">
      <circle id="楕円形_587" data-name="楕円形 587" cx="42" cy="42" r="42" transform="translate(213 7636)" fill="#449d39"/>
      <text id="STEP05" transform="translate(228 7740)" fill="#449d39" font-size="14" font-family="NotoSans-Regular, Noto Sans" letter-spacing="0.1em"><tspan x="0" y="0">STEP05</tspan></text>
    </g>
    <g id="グループ_332" data-name="グループ 332" transform="translate(225.244 7652.71)">
      <path id="パス_148" data-name="パス 148" d="M89.543,52.025a8.463,8.463,0,1,1,8.463-8.463A8.472,8.472,0,0,1,89.543,52.025Zm0-15.179a6.716,6.716,0,1,0,6.716,6.716A6.724,6.724,0,0,0,89.543,36.846Z" transform="translate(-59.296 -25.668)" fill="#fff"/>
      <g id="グループ_326" data-name="グループ 326" transform="translate(15.056 0)">
        <g id="グループ_324" data-name="グループ 324">
          <rect id="長方形_1892" data-name="長方形 1892" width="3.455" height="1.746" transform="translate(4.541 2.443) rotate(-45)" fill="#fff"/>
          <rect id="長方形_1893" data-name="長方形 1893" width="3.455" height="1.746" transform="translate(0 6.989) rotate(-45)" fill="#fff"/>
        </g>
        <g id="グループ_325" data-name="グループ 325" transform="translate(0.001 0.004)">
          <rect id="長方形_1894" data-name="長方形 1894" width="1.746" height="3.455" transform="translate(4.542 5.778) rotate(-45)" fill="#fff"/>
          <rect id="長方形_1895" data-name="長方形 1895" width="1.746" height="3.455" transform="translate(0 1.235) rotate(-45)" fill="#fff"/>
        </g>
      </g>
      <g id="グループ_331" data-name="グループ 331" transform="translate(42.413 18.872)">
        <g id="グループ_327" data-name="グループ 327" transform="translate(0 0.007)">
          <rect id="長方形_1896" data-name="長方形 1896" width="2.625" height="1.746" transform="translate(3.455 1.856) rotate(-44.99)" fill="#fff"/>
          <rect id="長方形_1897" data-name="長方形 1897" width="2.625" height="1.746" transform="translate(0 5.308) rotate(-44.99)" fill="#fff"/>
        </g>
        <g id="グループ_328" data-name="グループ 328" transform="translate(0 0.007)">
          <rect id="長方形_1898" data-name="長方形 1898" width="2.625" height="1.746" transform="translate(3.455 1.856) rotate(-44.99)" fill="#fff"/>
          <rect id="長方形_1899" data-name="長方形 1899" width="2.625" height="1.746" transform="translate(0 5.308) rotate(-44.99)" fill="#fff"/>
        </g>
        <g id="グループ_329" data-name="グループ 329" transform="translate(0.002 0)">
          <rect id="長方形_1900" data-name="長方形 1900" width="1.746" height="2.625" transform="translate(3.45 4.69) rotate(-45)" fill="#fff"/>
          <rect id="長方形_1901" data-name="長方形 1901" width="1.746" height="2.625" transform="translate(0 1.235) rotate(-45)" fill="#fff"/>
        </g>
        <g id="グループ_330" data-name="グループ 330" transform="translate(0.002 0)">
          <rect id="長方形_1902" data-name="長方形 1902" width="1.746" height="2.625" transform="translate(3.45 4.69) rotate(-45)" fill="#fff"/>
          <rect id="長方形_1903" data-name="長方形 1903" width="1.746" height="2.625" transform="translate(0 1.235) rotate(-45)" fill="#fff"/>
        </g>
      </g>
      <path id="パス_149" data-name="パス 149" d="M159.263,6.739l.623,1.916H161.9a.489.489,0,0,1,.287.884l-1.631,1.185.623,1.916a.488.488,0,0,1-.752.545L158.8,12l-1.631,1.185a.488.488,0,0,1-.752-.545l.623-1.916-1.631-1.185a.488.488,0,0,1,.287-.884h2.015l.623-1.916a.488.488,0,0,1,.93,0Z" transform="translate(-113.508 -4.678)" fill="#fff"/>
      <path id="パス_150" data-name="パス 150" d="M5.409,122.231l.83,2.555H8.925a.652.652,0,0,1,.384,1.179l-2.173,1.58.83,2.555a.652.652,0,0,1-1,.728l-2.173-1.58-2.173,1.58a.653.653,0,0,1-1-.728l.83-2.555-2.173-1.58a.652.652,0,0,1,.384-1.179H3.337l.83-2.555A.652.652,0,0,1,5.409,122.231Z" transform="translate(0.003 -89.061)" fill="#fff"/>
      <path id="パス_151" data-name="パス 151" d="M68.533,41.237a4.125,4.125,0,0,0-5.572,1.284l-3.8,5.7L54.9,46.355,48.233,43.7,34.3,42.707l-8.815-8.116-2.6-10.752-.011-.043a4.227,4.227,0,0,0-8.261,1.73l2.528,13.162a9.476,9.476,0,0,0,3.173,5.252L29.8,52.97l.806,13.194h1.749L31.5,52.18l-10-9.513-.021-.019a7.739,7.739,0,0,1-2.625-4.264l-2.517-13.1a2.4,2.4,0,0,1,1.934-2.813,2.433,2.433,0,0,1,2.915,1.8L23.906,35.52l9.653,8.887,14.276,1.016,6.375,2.539L59.8,50.4,64.4,43.513a2.44,2.44,0,0,1,4.221,2.429l-4.847,9.744a2.836,2.836,0,0,1-3.436,1.424l-8.721-3.063.263,12.116h1.746l-.21-9.634,6.351,2.23a4.59,4.59,0,0,0,5.569-2.3s4.718-9.481,4.841-9.79l.024.011a4.113,4.113,0,0,0-1.668-5.446Z" transform="translate(-10.655 -15.111)" fill="#fff"/>
    </g>
  </g>
</svg>
