<svg xmlns="http://www.w3.org/2000/svg" width="84" height="107" viewBox="0 0 84 107">
  <g id="グループ_687" data-name="グループ 687" transform="translate(-213 -7202)">
    <ellipse id="楕円形_585" data-name="楕円形 585" cx="42" cy="41.5" rx="42" ry="41.5" transform="translate(213 7202)" fill="#449d39"/>
    <text id="STEP03" transform="translate(228 7305)" fill="#449d39" font-size="14" font-family="NotoSans-Regular, Noto Sans" letter-spacing="0.1em"><tspan x="0" y="0">STEP03</tspan></text>
    <g id="レイヤー_1" data-name="レイヤー 1" transform="translate(234.517 7218.654)">
      <g id="グループ_322" data-name="グループ 322">
        <rect id="長方形_1879" data-name="長方形 1879" width="15.553" height="1.421" transform="translate(9.465 18.635)" fill="#fff"/>
        <rect id="長方形_1880" data-name="長方形 1880" width="2.695" height="1.421" transform="translate(5.349 18.635)" fill="#fff"/>
        <rect id="長方形_1881" data-name="長方形 1881" width="12.348" height="1.421" transform="translate(9.465 24.294)" fill="#fff"/>
        <rect id="長方形_1882" data-name="長方形 1882" width="2.695" height="1.421" transform="translate(5.349 24.294)" fill="#fff"/>
        <rect id="長方形_1883" data-name="長方形 1883" width="2.695" height="1.421" transform="translate(5.349 29.954)" fill="#fff"/>
        <rect id="長方形_1884" data-name="長方形 1884" width="14.838" height="1.421" transform="translate(9.465 29.954)" fill="#fff"/>
        <rect id="長方形_1885" data-name="長方形 1885" width="10.674" height="1.421" transform="translate(9.465 35.611)" fill="#fff"/>
        <rect id="長方形_1886" data-name="長方形 1886" width="2.695" height="1.421" transform="translate(5.349 35.611)" fill="#fff"/>
        <path id="パス_145" data-name="パス 145" d="M48,25.477h0a6.092,6.092,0,0,0-8.473-1.39A6.852,6.852,0,0,0,38.3,25.108V9.268L29.031,0H1.8A1.805,1.805,0,0,0,0,1.8v45.9a1.805,1.805,0,0,0,1.8,1.8H36.5a1.805,1.805,0,0,0,1.8-1.8V37.019a3.33,3.33,0,0,0,2.3-.8,2.817,2.817,0,0,0,.835-1.373,6.69,6.69,0,0,0,4.4-1.065A6.092,6.092,0,0,0,48,25.477ZM29.377,2.356l6.551,6.551H29.377ZM36.5,48.09H1.8a.383.383,0,0,1-.383-.383V1.8A.383.383,0,0,1,1.8,1.421H27.956v8.908h8.923V26.622L22.395,42.11a1.579,1.579,0,0,0-.426,1.163,1.679,1.679,0,0,0,.1.479H14.842v1.421H33.784V43.751h-8.5L31.6,37.744a3.3,3.3,0,0,0,3.093.87,2.758,2.758,0,0,0,1.757-1.924c.14.05.282.092.424.131V47.706a.384.384,0,0,1-.383.383Zm-13.05-4.763a.157.157,0,0,1-.057-.12.171.171,0,0,1,.046-.125l1.279-1.368.324.317-1.36,1.292A.171.171,0,0,1,23.446,43.327ZM45.059,32.594a5.185,5.185,0,0,1-4.053.737.709.709,0,0,0-.881.682,1.544,1.544,0,0,1-.477,1.154,2.218,2.218,0,0,1-1.727.413,4.386,4.386,0,0,1-1.653-.52.709.709,0,0,0-1.047.573c-.046.66-.358,1.449-.933,1.624a2.3,2.3,0,0,1-2.153-.973.711.711,0,0,0-1.014-.037l-5.054,4.8-.383-.376,13.522-14.46a5.548,5.548,0,0,1,1.1-.938,5.329,5.329,0,0,1,2.9-.879,4.22,4.22,0,0,1,3.609,1.851,4.674,4.674,0,0,1-1.749,6.341Z" fill="#fff"/>
        <path id="パス_146" data-name="パス 146" d="M55.49,46.155H68.418a.71.71,0,0,0,.71-.71v-4.3a.712.712,0,0,0-.71-.71H55.49a.712.712,0,0,0-.71.71v4.3A.71.71,0,0,0,55.49,46.155Zm.71-4.3H67.708v2.883H56.2Z" transform="translate(-42.805 -31.592)" fill="#fff"/>
      </g>
    </g>
  </g>
</svg>
