<svg xmlns="http://www.w3.org/2000/svg" width="164.405" height="62.169" viewBox="0 0 164.405 62.169">
  <g id="グループ_621" data-name="グループ 621" transform="translate(-559.798 -4609.831)">
    <g id="e1542_1" transform="translate(539.798 4602.792)">
      <path id="パス_131" data-name="パス 131" d="M184.356,35.886c.177-.022.246-9.628-7-17.335-4.787-5.146-13.966-8-26.618-9.594C138.042,7.369,121.875,7.045,102.2,7.04s-35.84.329-48.532,1.918C41.018,10.55,31.84,13.406,27.052,18.552c-7.249,7.706-7.181,17.313-7,17.335-.177.024-.246,9.627,7,17.334,4.787,5.146,13.966,8,26.618,9.595,5.3.663,11.2,1.105,17.711,1.4,3.3,4.339,6.278,5,6.278,5,.6-.69,1.031-3.019,1.276-4.73,7.12.192,14.873.252,23.267.254,19.673,0,35.84-.329,48.532-1.918,12.653-1.592,21.831-4.448,26.618-9.594C184.6,45.514,184.533,35.909,184.356,35.886Z" fill="#ffa700"/>
    </g>
    <text id="LIFEの" transform="translate(607.5 4646.503)" fill="#fff" font-size="20" font-family="NotoSans-Bold, Noto Sans" font-weight="700" letter-spacing="0.1em"><tspan x="0" y="0">LIFE</tspan><tspan y="0" font-family="YuGothicUI-Bold, Yu Gothic UI">の</tspan></text>
  </g>
</svg>
