<svg xmlns="http://www.w3.org/2000/svg" width="259.968" height="62.169" viewBox="0 0 259.968 62.169">
  <g id="グループ_677" data-name="グループ 677" transform="translate(-715 -243.916)">
    <g id="グループ_612" data-name="グループ 612" transform="translate(162 -1700)">
      <path id="パス_131" data-name="パス 131" d="M279.891,35.886c.28-.022.389-9.628-11.075-17.335-7.57-5.146-22.083-8-42.09-9.594-20.07-1.589-45.634-1.913-76.742-1.918s-56.673.329-76.742,1.918c-20.007,1.592-34.52,4.449-42.091,9.594C19.689,26.258,19.8,35.864,20.076,35.886c-.279.024-.389,9.627,11.075,17.334,7.57,5.146,22.083,8,42.091,9.595,8.376.663,17.712,1.105,28.006,1.4a22,22,0,0,0,9.927,5c.95-.69,1.631-3.019,2.018-4.73,11.258.192,23.518.252,36.791.254,31.109,0,56.672-.329,76.741-1.918,20.007-1.592,34.521-4.448,42.091-9.594C280.28,45.514,280.17,35.909,279.891,35.886Z" transform="translate(533 1936.876)" fill="#449d39"/>
      <text id="保護者の皆さまから" transform="translate(604 1983)" fill="#fff" font-size="20" font-family="YuGothicUI-Bold, Yu Gothic UI" font-weight="700"><tspan x="0" y="0">保護者の皆さまから</tspan></text>
    </g>
  </g>
</svg>
