<svg xmlns="http://www.w3.org/2000/svg" width="108.818" height="105.453" viewBox="0 0 108.818 105.453">
  <g id="レイヤー_1" data-name="レイヤー 1" transform="translate(1557.989 1224.927)">
    <g id="グループ_174" data-name="グループ 174" transform="translate(-1557.989 -1224.927)">
      <g id="グループ_172" data-name="グループ 172">
        <g id="グループ_169" data-name="グループ 169" transform="translate(0 24.063)" opacity="0.82">
          <path id="パス_94" data-name="パス 94" d="M59.167,92.963c-1.436,7.981-5.026,16.917-11.2,21.208s-16.044,5.878-24.024,4.442-13.037-8.9-17.324-15.075S-1.092,90.351.344,82.37,4.795,63.558,11.737,58.713,29.71,55.794,37.7,57.23,55.763,61.361,59.25,68.321c3.326,6.644,1.328,16.844-.078,24.643Z" transform="translate(-0.011 -55.613)" fill="#edd73b"/>
        </g>
        <g id="グループ_170" data-name="グループ 170" transform="translate(35.739 42.17)" opacity="0.82">
          <path id="パス_95" data-name="パス 95" d="M147.87,118.117c2.548,4.788,8.941,13.98,7.678,21.2-1.068,6.086-7.691,14.72-13.647,19.141-6.289,4.672-16.5.722-23.414,1.112-7.4.42-14.716,1.445-19.716-5.286-4.654-6.263-16.476-15.7-16.13-23.691.372-8.617,14.5-14.56,22.255-17.843,7.95-3.37,16.117-15.849,23.181-15.252,8.154.688,15.715,12.947,19.8,20.62Z" transform="translate(-82.633 -97.472)" fill="#449d39"/>
        </g>
        <g id="グループ_171" data-name="グループ 171" transform="translate(37.657)" opacity="0.82">
          <path id="パス_96" data-name="パス 96" d="M148.6,25.585c6.155,6.8,9.642,15.923,6.2,20.075-2.647,3.192-8.668,5.554-13.357,10.818-6.558,7.358-13.375,4.213-17.454,4.031-3.69-.164-8.452.614-16.065-4.992-6.207-4.572-19.837-12.644-20.806-21.628-.952-8.846,12.259-17.964,17.726-23.873,5.848-6.32,18.682-13.479,27.567-8.2,7.518,4.468,11.2,18.245,16.191,23.756Z" transform="translate(-87.067 0.017)" fill="#bc387c"/>
        </g>
      </g>
      <g id="グループ_173" data-name="グループ 173" transform="translate(16.809 45.962)">
        <path id="パス_97" data-name="パス 97" d="M38.87,106.24H44.4v13.492h8.634v4.408H38.874v-17.9Z" transform="translate(-38.87 -106.24)" fill="#fff"/>
        <path id="パス_98" data-name="パス 98" d="M89.5,106.24h5.541v17.9H89.5Z" transform="translate(-67.6 -106.24)" fill="#fff"/>
        <path id="パス_99" data-name="パス 99" d="M122.82,106.24h13.673v3.845h-8.119v3.127h6.934v3.616h-6.934v7.315H122.82v-17.9Z" transform="translate(-86.507 -106.24)" fill="#fff"/>
        <path id="パス_100" data-name="パス 100" d="M172.57,106.24h14.824v3.824h-9.278v2.846h8.608v3.651h-8.608v3.53h9.547v4.053H172.57v-17.9Z" transform="translate(-114.737 -106.24)" fill="#fff"/>
      </g>
    </g>
  </g>
</svg>
